<?xml version="1.0" encoding="UTF-8"?>
<svg version="1.1" xmlns="http://www.w3.org/2000/svg" width="337" height="169">
<path d="M0 0 C0.00386719 1.96453125 0.00386719 1.96453125 0.0078125 3.96875 C0.27882389 20.78858932 2.85611927 37.62140644 10 53 C12.64 53 15.28 53 18 53 C17.505 50.03 17.505 50.03 17 47 C18.98 47.66 20.96 48.32 23 49 C23.66 44.05 24.32 39.1 25 34 C25.33 34 25.66 34 26 34 C26.99 40.93 26.99 40.93 28 48 C32.81115706 46.27468064 32.81115706 46.27468064 36 44 C35.690625 44.5775 35.38125 45.155 35.0625 45.75 C34.07416636 47.84294184 33.4831387 49.74535275 33 52 C35.80747455 52.7795458 38.42029808 53.1710149 41.328125 53.31640625 C42.52695312 53.37924805 42.52695312 53.37924805 43.75 53.44335938 C44.575 53.48267578 45.4 53.52199219 46.25 53.5625 C47.51070313 53.62727539 47.51070313 53.62727539 48.796875 53.69335938 C50.86440671 53.79908543 52.93218281 53.90001295 55 54 C55.33 54.99 55.66 55.98 56 57 C60.29 56.67 64.58 56.34 69 56 C69.33 56.99 69.66 57.98 70 59 C69.67 59.66 69.34 60.32 69 61 C65.9375 61.625 65.9375 61.625 63 62 C63.069042 67.44478172 63.15708887 72.88880758 63.26245117 78.33300781 C63.29562296 80.18350819 63.32367887 82.03410786 63.34643555 83.88476562 C63.3801245 86.55121003 63.4324466 89.2167509 63.48828125 91.8828125 C63.49786613 93.11597702 63.49786613 93.11597702 63.50764465 94.37405396 C63.63236926 99.29114154 64.28413111 102.74066195 67 107 C72.10541052 110.82905789 77.8747357 110.69095969 84 110 C87.08048014 108.74266117 88.38803798 107.88734494 90.25 105.1875 C92.07840988 99.85463784 92.18933735 94.34325461 92.31640625 88.7578125 C92.33718735 87.98944061 92.35796844 87.22106873 92.37937927 86.42941284 C92.44433469 83.99469233 92.50350638 81.55987153 92.5625 79.125 C92.6057367 77.4661358 92.64935257 75.80728144 92.69335938 74.1484375 C92.79996003 70.09905896 92.9013767 66.04958037 93 62 C92.030625 61.87625 91.06125 61.7525 90.0625 61.625 C89.051875 61.41875 88.04125 61.2125 87 61 C86.67 60.34 86.34 59.68 86 59 C86.33 58.01 86.66 57.02 87 56 C92.94 56 98.88 56 105 56 C105 57.65 105 59.3 105 61 C101.535 61.495 101.535 61.495 98 62 C98.02356567 63.75473633 98.02356567 63.75473633 98.04760742 65.54492188 C98.10218711 69.91334055 98.13645153 74.28172947 98.16479492 78.65039062 C98.17981793 80.53585897 98.20024231 82.42129275 98.22631836 84.30664062 C98.26298863 87.0274309 98.27979146 89.74775641 98.29296875 92.46875 C98.30845261 93.30241089 98.32393646 94.13607178 98.33988953 94.99499512 C98.34183935 101.88091851 97.11291999 107.3731265 92.6875 112.875 C85.79503118 118.32485907 77.36328452 117.5743028 69 117 C63.418823 115.91758992 59.58910161 113.43359611 56 109 C52.86117679 102.87929474 52.85633097 96.28314425 52.90234375 89.5390625 C52.90446617 88.3532106 52.90446617 88.3532106 52.90663147 87.1434021 C52.91219496 84.63722834 52.92474056 82.13114642 52.9375 79.625 C52.94251972 77.91797005 52.9470818 76.21093868 52.95117188 74.50390625 C52.96215241 70.33590252 52.97939161 66.16796679 53 62 C50.03 61.505 50.03 61.505 47 61 C46.67 60.01 46.34 59.02 46 58 C41.71 58 37.42 58 33 58 C33.99 61.96 33.99 61.96 35 66 C34.401875 65.67 33.80375 65.34 33.1875 65 C30.94613529 63.79212012 30.94613529 63.79212012 28 64 C26.64908472 66.70183055 26.66141942 69.11808206 26.4375 72.125 C26.31181641 73.76855469 26.31181641 73.76855469 26.18359375 75.4453125 C26.12300781 76.28835937 26.06242187 77.13140625 26 78 C25.34 78 24.68 78 24 78 C23.505 70.575 23.505 70.575 23 63 C21.35 63 19.7 63 18 63 C16.32656552 62.70250054 14.65694085 62.37872934 13 62 C22.05599073 93.87548006 22.05599073 93.87548006 44.00390625 117.1171875 C46.91296254 118.40377599 49.93366394 119.17444798 53 120 C53 120.66 53 121.32 53 122 C40.80762861 125.82863251 31.99771634 126.0164149 20 121 C5.67676347 112.84311152 0.10162745 96.75983669 -5 82 C-5.30164063 81.15824219 -5.60328125 80.31648438 -5.9140625 79.44921875 C-6.18992187 78.66160156 -6.46578125 77.87398438 -6.75 77.0625 C-6.99234375 76.37285156 -7.2346875 75.68320313 -7.484375 74.97265625 C-8 73 -8 73 -8 69 C-16.52669692 72.99121984 -24.32546525 77.55087235 -32 83 C-32.88945313 83.59296875 -33.77890625 84.1859375 -34.6953125 84.796875 C-41.11501706 89.39079203 -44.50697226 94.76137731 -48.1328125 101.58984375 C-54.23023842 112.72593753 -62.327912 120.09263972 -74 125 C-76.74182799 125.80080469 -79.18645362 126.12807057 -82.0390625 126.1328125 C-83.15667969 126.13474609 -83.15667969 126.13474609 -84.296875 126.13671875 C-85.06515625 126.13285156 -85.8334375 126.12898438 -86.625 126.125 C-87.40101562 126.12886719 -88.17703125 126.13273437 -88.9765625 126.13671875 C-94.74659734 126.12670133 -94.74659734 126.12670133 -97 125 C-96.67 124.01 -96.34 123.02 -96 122 C-93.03 121.505 -93.03 121.505 -90 121 C-90.061875 120.030625 -90.12375 119.06125 -90.1875 118.0625 C-90.10022361 107.1965899 -83.53746538 98.569387 -76.375 90.9375 C-71.13702882 85.89390666 -65.04822162 81.99212643 -59 78 C-57.94039062 77.25234375 -56.88078125 76.5046875 -55.7890625 75.734375 C-53 74 -53 74 -50 74 C-49.88269531 73.46761719 -49.76539063 72.93523437 -49.64453125 72.38671875 C-48.84933624 69.44208755 -47.78565836 66.6581921 -46.6875 63.8125 C-46.27886719 62.74644531 -45.87023438 61.68039063 -45.44921875 60.58203125 C-39.3015622 45.38688015 -20.44625469 0 0 0 Z M-21 30 C-22.27339482 32.51956743 -23.54376642 35.04058649 -24.8125 37.5625 C-25.34713867 38.61920898 -25.34713867 38.61920898 -25.89257812 39.69726562 C-30.32629467 48.39415851 -30.32629467 48.39415851 -33.1875 57.6875 C-33.34605469 58.41324219 -33.50460938 59.13898437 -33.66796875 59.88671875 C-34.10347492 62.30205308 -34.10347492 62.30205308 -34 66 C-26.10479003 64.18120817 -18.55490512 61.92975651 -11 59 C-11.50660156 57.09927734 -11.50660156 57.09927734 -12.0234375 55.16015625 C-12.47405243 53.46096245 -12.92456794 51.76174228 -13.375 50.0625 C-13.70757812 48.81629883 -13.70757812 48.81629883 -14.046875 47.54492188 C-14.26601562 46.71669922 -14.48515625 45.88847656 -14.7109375 45.03515625 C-15.04109863 43.79016357 -15.04109863 43.79016357 -15.37792969 42.52001953 C-16.17868404 39.27614731 -16.79083855 36.0042723 -17.36181641 32.71264648 C-17.57241699 32.14747314 -17.78301758 31.5822998 -18 31 C-18.99 30.67 -19.98 30.34 -21 30 Z " fill="#9C4FEC" transform="translate(100,1)"/>
<path d="M0 0 C0.029729 0.92111572 0.029729 0.92111572 0.06005859 1.86083984 C0.15653802 4.69925383 0.26570802 7.53705157 0.375 10.375 C0.4059375 11.34050781 0.436875 12.30601563 0.46875 13.30078125 C0.69651098 18.95684554 1.29532984 24.30327232 2.52954102 29.83056641 C3.25920273 33.19526491 3.63924538 36.5792732 4 40 C4.0928125 40.83917969 4.185625 41.67835937 4.28125 42.54296875 C4.72567891 46.72183507 5.05230451 50.79322267 5 55 C2.85529407 55.36093104 0.70919203 55.71357589 -1.4375 56.0625 C-3.22994141 56.35833984 -3.22994141 56.35833984 -5.05859375 56.66015625 C-6.02925781 56.77230469 -6.99992187 56.88445313 -8 57 C-8.33 56.67 -8.66 56.34 -9 56 C-9.33 56.99 -9.66 57.98 -10 59 C-5.54427755 58.57564548 -1.22716471 58.11530937 3.125 57.0625 C9.6557589 55.51420957 16.34694635 54.82396185 23 54 C23.66 52.35 24.32 50.7 25 49 C25.495 50.98 25.495 50.98 26 53 C26.66 53 27.32 53 28 53 C28 53.66 28 54.32 28 55 C31.3 55 34.6 55 38 55 C34.00889681 56.9955516 32.30013434 57.19546065 28 57 C28 57.66 28 58.32 28 59 C26.845 58.938125 25.69 58.87625 24.5 58.8125 C7.15145233 58.83973477 -9.86953846 65.1968496 -25.359375 72.390625 C-29 74 -29 74 -31 74 C-31 74.66 -31 75.32 -31 76 C-31.60328125 76.32613281 -32.2065625 76.65226562 -32.828125 76.98828125 C-33.62734375 77.42527344 -34.4265625 77.86226563 -35.25 78.3125 C-36.43335937 78.95638672 -36.43335937 78.95638672 -37.640625 79.61328125 C-40.03172974 80.9534484 -40.03172974 80.9534484 -42.171875 82.66796875 C-44 84 -44 84 -46 84 C-46.309375 84.86625 -46.309375 84.86625 -46.625 85.75 C-48.51328567 88.83992201 -50.95836705 90.04876377 -54 92 C-55.83070201 93.57471402 -57.61738401 95.18488078 -59.38671875 96.828125 C-61 98 -61 98 -64 98 C-62.58845234 94.58875982 -60.93778777 93.1543777 -58 91 C-58 90.34 -58 89.68 -58 89 C-59.9600281 87.36323743 -59.9600281 87.36323743 -62 86 C-62.54269531 86.34933594 -63.08539063 86.69867188 -63.64453125 87.05859375 C-64.35996094 87.51363281 -65.07539062 87.96867187 -65.8125 88.4375 C-66.52019531 88.88996094 -67.22789063 89.34242187 -67.95703125 89.80859375 C-70 91 -70 91 -73 92 C-72.88671875 89.78515625 -72.88671875 89.78515625 -72 87 C-69.94587757 85.25737539 -68.06640143 83.86140906 -65.8125 82.4375 C-65.24724609 82.06431641 -64.68199219 81.69113281 -64.09960938 81.30664062 C-62.96707622 80.56069954 -61.8291981 79.82280812 -60.68603516 79.09326172 C-59.01705611 78.01105955 -57.38878705 76.86690332 -55.76171875 75.72265625 C-53 74 -53 74 -50 74 C-49.88269531 73.46761719 -49.76539062 72.93523437 -49.64453125 72.38671875 C-48.84933624 69.44208755 -47.78565836 66.6581921 -46.6875 63.8125 C-46.27886719 62.74644531 -45.87023437 61.68039063 -45.44921875 60.58203125 C-39.3015622 45.38688015 -20.44625469 0 0 0 Z M-21 30 C-22.27339482 32.51956743 -23.54376642 35.04058649 -24.8125 37.5625 C-25.34713867 38.61920898 -25.34713867 38.61920898 -25.89257812 39.69726562 C-30.32629467 48.39415851 -30.32629467 48.39415851 -33.1875 57.6875 C-33.34605469 58.41324219 -33.50460938 59.13898437 -33.66796875 59.88671875 C-34.10347492 62.30205308 -34.10347492 62.30205308 -34 66 C-26.10479003 64.18120817 -18.55490512 61.92975651 -11 59 C-11.50660156 57.09927734 -11.50660156 57.09927734 -12.0234375 55.16015625 C-12.47405243 53.46096245 -12.92456794 51.76174228 -13.375 50.0625 C-13.70757812 48.81629883 -13.70757812 48.81629883 -14.046875 47.54492188 C-14.26601562 46.71669922 -14.48515625 45.88847656 -14.7109375 45.03515625 C-15.04109863 43.79016357 -15.04109863 43.79016357 -15.37792969 42.52001953 C-16.17868404 39.27614731 -16.79083855 36.0042723 -17.36181641 32.71264648 C-17.57241699 32.14747314 -17.78301758 31.5822998 -18 31 C-18.99 30.67 -19.98 30.34 -21 30 Z " fill="#DDAEFB" transform="translate(100,1)"/>
<path d="M0 0 C0 0.66 0 1.32 0 2 C-2.97 2.66 -5.94 3.32 -9 4 C-9 4.66 -9 5.32 -9 6 C-9.72703125 6.3403125 -10.4540625 6.680625 -11.203125 7.03125 C-18.94061329 10.76111615 -26.00023537 15.02997742 -33 20 C-33.88945313 20.59296875 -34.77890625 21.1859375 -35.6953125 21.796875 C-42.11501706 26.39079203 -45.50697226 31.76137731 -49.1328125 38.58984375 C-55.23023842 49.72593753 -63.327912 57.09263972 -75 62 C-77.74182799 62.80080469 -80.18645362 63.12807057 -83.0390625 63.1328125 C-84.15667969 63.13474609 -84.15667969 63.13474609 -85.296875 63.13671875 C-86.06515625 63.13285156 -86.8334375 63.12898438 -87.625 63.125 C-88.40101562 63.12886719 -89.17703125 63.13273437 -89.9765625 63.13671875 C-95.74659734 63.12670133 -95.74659734 63.12670133 -98 62 C-97.67 61.01 -97.34 60.02 -97 59 C-94.03 58.505 -94.03 58.505 -91 58 C-91.061875 57.030625 -91.12375 56.06125 -91.1875 55.0625 C-91.11482486 46.01444528 -86.64712089 38.79724735 -81 32 C-78.75666807 29.80893989 -76.48386763 27.92626469 -74 26 C-74 26.99 -74 27.98 -74 29 C-73.39671875 28.57847656 -72.7934375 28.15695313 -72.171875 27.72265625 C-71.37265625 27.17480469 -70.5734375 26.62695312 -69.75 26.0625 C-68.96109375 25.51722656 -68.1721875 24.97195312 -67.359375 24.41015625 C-65.17363007 23.10377559 -63.4846199 22.45019489 -61 22 C-61 22.66 -61 23.32 -61 24 C-60.01 24.66 -59.02 25.32 -58 26 C-59.55500981 29.81684226 -62.03595495 32.19195732 -65 35 C-61.11616878 32.88154661 -57.99618406 30.31768054 -54.69921875 27.4140625 C-52.60995837 25.67541363 -50.33276839 24.38705147 -48 23 C-47.13375 22.1028125 -47.13375 22.1028125 -46.25 21.1875 C-42.38876839 17.43352482 -37.53732713 13 -32 13 C-32 12.34 -32 11.68 -32 11 C-28.46378819 9.34226051 -24.92017608 7.70097041 -21.375 6.0625 C-19.87646484 5.35963867 -19.87646484 5.35963867 -18.34765625 4.64257812 C-17.37441406 4.19462891 -16.40117188 3.74667969 -15.3984375 3.28515625 C-14.06304932 2.66459351 -14.06304932 2.66459351 -12.70068359 2.03149414 C-8.42449903 0.39825605 -4.56236812 0 0 0 Z " fill="#34096F" transform="translate(101,64)"/>
<path d="M0 0 C4.31236921 -0.08789715 8.6245045 -0.1406923 12.9375 -0.1875 C14.14986328 -0.21263672 15.36222656 -0.23777344 16.61132812 -0.26367188 C24.9931773 -0.33181699 31.78826668 0.31165959 38.9375 4.875 C42.59259136 8.64085171 43.13022074 11.88099077 43.3125 17 C43.21368273 21.16267733 42.77778207 23.74328998 40 27 C35.56756757 31 35.56756757 31 33 31 C34.61804265 34.46163064 36.24560216 37.91870154 37.875 41.375 C38.33519531 42.35984375 38.79539062 43.3446875 39.26953125 44.359375 C39.71425781 45.30039063 40.15898437 46.24140625 40.6171875 47.2109375 C41.22989502 48.51490479 41.22989502 48.51490479 41.85498047 49.84521484 C42.93363508 52.12871104 42.93363508 52.12871104 45 54 C47.57061311 54.64767793 47.57061311 54.64767793 50 55 C50 56.65 50 58.3 50 60 C44.32063197 61.27496017 41.00926152 61.06121537 36 58 C31.27697944 52.73995961 25 41.09561868 25 34 C22.03 34 19.06 34 16 34 C16 40.6 16 47.2 16 54 C17.98 54.33 19.96 54.66 22 55 C21.67 56.65 21.34 58.3 21 60 C14.07 60 7.14 60 0 60 C-0.495 58.515 -0.495 58.515 -1 57 C-0.67 56.34 -0.34 55.68 0 55 C2.97 54.505 2.97 54.505 6 54 C6 38.16 6 22.32 6 6 C3.03 5.505 3.03 5.505 0 5 C0 3.35 0 1.7 0 0 Z M16 6 C15.97112488 9.64581687 15.95324415 13.29160463 15.9375 16.9375 C15.92912109 17.97841797 15.92074219 19.01933594 15.91210938 20.09179688 C15.90888672 21.08115234 15.90566406 22.07050781 15.90234375 23.08984375 C15.89710693 24.00628662 15.89187012 24.92272949 15.88647461 25.86694336 C15.76078789 27.98363023 15.76078789 27.98363023 17 29 C22.87968045 29.59996739 27.19233359 28.3045799 32 25 C34.68468038 20.97297943 34.68187737 17.7315637 34 13 C31.85431306 9.3983112 29.85239073 7.54783556 26 6 C23.40845081 5.75970041 23.40845081 5.75970041 20.75 5.875 C19.41195312 5.90207031 19.41195312 5.90207031 18.046875 5.9296875 C17.37140625 5.95289063 16.6959375 5.97609375 16 6 Z " fill="#FAFAFA" transform="translate(218,57)"/>
<path d="M0 0 C0.66 0.33 1.32 0.66 2 1 C2 1.66 2 2.32 2 3 C8.435 2.505 8.435 2.505 15 2 C15.33 2.99 15.66 3.98 16 5 C15.67 5.66 15.34 6.32 15 7 C11.9375 7.625 11.9375 7.625 9 8 C9.069042 13.44478172 9.15708887 18.88880758 9.26245117 24.33300781 C9.29562296 26.18350819 9.32367887 28.03410786 9.34643555 29.88476562 C9.3801245 32.55121003 9.4324466 35.2167509 9.48828125 37.8828125 C9.49467117 38.70492218 9.5010611 39.52703186 9.50764465 40.37405396 C9.63236926 45.29114154 10.28413111 48.74066195 13 53 C18.10541052 56.82905789 23.8747357 56.69095969 30 56 C33.08048014 54.74266117 34.38803798 53.88734494 36.25 51.1875 C38.07840988 45.85463784 38.18933735 40.34325461 38.31640625 34.7578125 C38.33718735 33.98944061 38.35796844 33.22106873 38.37937927 32.42941284 C38.44433469 29.99469233 38.50350638 27.55987153 38.5625 25.125 C38.6057367 23.4661358 38.64935257 21.80728144 38.69335938 20.1484375 C38.79996003 16.09905896 38.9013767 12.04958037 39 8 C38.030625 7.87625 37.06125 7.7525 36.0625 7.625 C35.051875 7.41875 34.04125 7.2125 33 7 C32.505 6.01 32.505 6.01 32 5 C32.33 4.01 32.66 3.02 33 2 C38.94 2 44.88 2 51 2 C51 3.65 51 5.3 51 7 C48.69 7.33 46.38 7.66 44 8 C44.01571045 9.16982422 44.0314209 10.33964844 44.04760742 11.54492188 C44.10218711 15.91334055 44.13645153 20.28172947 44.16479492 24.65039062 C44.17981793 26.53585897 44.20024231 28.42129275 44.22631836 30.30664062 C44.26298863 33.0274309 44.27979146 35.74775641 44.29296875 38.46875 C44.30845261 39.30241089 44.32393646 40.13607178 44.33988953 40.99499512 C44.34183935 47.88091851 43.11291999 53.3731265 38.6875 58.875 C31.79503118 64.32485907 23.36328452 63.5743028 15 63 C9.418823 61.91758992 5.58910161 59.43359611 2 55 C-1.13882321 48.87929474 -1.14366903 42.28314425 -1.09765625 35.5390625 C-1.0962413 34.74849457 -1.09482635 33.95792664 -1.09336853 33.1434021 C-1.08780504 30.63722834 -1.07525944 28.13114642 -1.0625 25.625 C-1.05748028 23.91797005 -1.0529182 22.21093868 -1.04882812 20.50390625 C-1.03784759 16.33590252 -1.02060839 12.16796679 -1 8 C-3.97 7.505 -3.97 7.505 -7 7 C-7 6.01 -7 5.02 -7 4 C-4.69 4 -2.38 4 0 4 C0 2.68 0 1.36 0 0 Z " fill="#F8F7F7" transform="translate(154,55)"/>
<path d="M0 0 C2.37046291 2.37046291 3.04503525 4.31477376 4.25 7.44140625 C4.68868408 8.57143066 5.12736816 9.70145508 5.5793457 10.86572266 C6.04816162 12.08565918 6.51697754 13.3055957 7 14.5625 C7.49022348 15.81855062 7.9813632 17.07424401 8.47338867 18.32958984 C10.94720221 24.6503336 13.37351698 30.98508883 15.73828125 37.34765625 C16.59634734 39.60677343 17.45441996 41.86588812 18.3125 44.125 C18.69599609 45.19049072 19.07949219 46.25598145 19.47460938 47.35375977 C21.52534312 53.15797735 21.52534312 53.15797735 26.29296875 56.6796875 C27.18628906 56.78539062 28.07960938 56.89109375 29 57 C29 58.65 29 60.3 29 62 C21.41 62 13.82 62 6 62 C6 60.35 6 58.7 6 57 C8.97 56.505 8.97 56.505 12 56 C11.45859375 54.73542969 11.45859375 54.73542969 10.90625 53.4453125 C10.4421875 52.34960938 9.978125 51.25390625 9.5 50.125 C9.0359375 49.03445312 8.571875 47.94390625 8.09375 46.8203125 C7 44 7 44 7 42 C0.73 42 -5.54 42 -12 42 C-12.66 44.97 -13.32 47.94 -14 51 C-14.61896629 52.68496378 -15.26117922 54.36403971 -16 56 C-14.02 56.33 -12.04 56.66 -10 57 C-10.33 58.65 -10.66 60.3 -11 62 C-16.94 62 -22.88 62 -29 62 C-29 60.35 -29 58.7 -29 57 C-25.535 56.505 -25.535 56.505 -22 56 C-21.86821854 55.27882492 -21.73643707 54.55764984 -21.60066223 53.81462097 C-21.02353784 51.11029509 -20.27237282 48.58486759 -19.3894043 45.96606445 C-19.06203781 44.99188065 -18.73467133 44.01769684 -18.39738464 43.01399231 C-16.89632125 38.60701567 -15.39448574 34.20037258 -13.88110352 29.79760742 C-13.08428224 27.47103271 -12.29392922 25.14223282 -11.51000977 22.8112793 C-10.37898596 19.44856456 -9.22889979 16.09293502 -8.07421875 12.73828125 C-7.7261467 11.69247391 -7.37807465 10.64666656 -7.01945496 9.56916809 C-6.5142205 8.1220771 -6.5142205 8.1220771 -5.9987793 6.64575195 C-5.56362251 5.36931572 -5.56362251 5.36931572 -5.11967468 4.0670929 C-3.77347776 1.58180486 -2.60199802 0.98475096 0 0 Z M-3 17 C-5.47390635 23.2436684 -7.29446483 29.50272314 -9 36 C-4.71 36 -0.42 36 4 36 C3.13832722 31.69163608 1.94423127 27.78564022 0.4375 23.6875 C0.20353516 23.04232422 -0.03042969 22.39714844 -0.27148438 21.73242188 C-0.84447007 20.15378781 -1.42179464 18.57672974 -2 17 C-2.33 17 -2.66 17 -3 17 Z " fill="#F9F9F9" transform="translate(305,55)"/>
<path d="M0 0 C1 2 1 2 0.5 4.4375 C-0.23853737 7.10448331 -0.23853737 7.10448331 1 10 C0.60024684 12.24476772 0.11034401 14.47421022 -0.4375 16.6875 C-0.86869141 18.45673828 -0.86869141 18.45673828 -1.30859375 20.26171875 C-1.53675781 21.16535156 -1.76492187 22.06898437 -2 23 C-0.948125 22.5875 0.10375 22.175 1.1875 21.75 C17.70813974 15.61711598 17.70813974 15.61711598 24.87109375 16.05078125 C28.81298106 15.95675458 32.57940128 14.74464064 36.390625 13.80078125 C42.53446456 12.43769996 48.75309813 11.73442138 55 11 C55.66 9.35 56.32 7.7 57 6 C57.495 7.98 57.495 7.98 58 10 C58.66 10 59.32 10 60 10 C60 10.66 60 11.32 60 12 C63.3 12 66.6 12 70 12 C66.00889681 13.9955516 64.30013434 14.19546065 60 14 C60 14.66 60 15.32 60 16 C58.845 15.938125 57.69 15.87625 56.5 15.8125 C39.15145233 15.83973477 22.13046154 22.1968496 6.640625 29.390625 C3 31 3 31 1 31 C1 31.66 1 32.32 1 33 C0.39671875 33.32613281 -0.2065625 33.65226562 -0.828125 33.98828125 C-1.62734375 34.42527344 -2.4265625 34.86226562 -3.25 35.3125 C-4.03890625 35.74175781 -4.8278125 36.17101562 -5.640625 36.61328125 C-8.03172974 37.9534484 -8.03172974 37.9534484 -10.171875 39.66796875 C-12 41 -12 41 -14 41 C-14.309375 41.86625 -14.309375 41.86625 -14.625 42.75 C-16.51328567 45.83992201 -18.95836705 47.04876377 -22 49 C-23.83070201 50.57471402 -25.61738401 52.18488078 -27.38671875 53.828125 C-29 55 -29 55 -32 55 C-30.58845234 51.58875982 -28.93778777 50.1543777 -26 48 C-26 47.34 -26 46.68 -26 46 C-27.9600281 44.36323743 -27.9600281 44.36323743 -30 43 C-30.54269531 43.34933594 -31.08539063 43.69867188 -31.64453125 44.05859375 C-32.35996094 44.51363281 -33.07539062 44.96867187 -33.8125 45.4375 C-34.87404297 46.11619141 -34.87404297 46.11619141 -35.95703125 46.80859375 C-38 48 -38 48 -41 49 C-40.88671875 46.78515625 -40.88671875 46.78515625 -40 44 C-37.94587757 42.25737539 -36.06640143 40.86140906 -33.8125 39.4375 C-33.24724609 39.06431641 -32.68199219 38.69113281 -32.09960938 38.30664062 C-30.96707622 37.56069954 -29.8291981 36.82280812 -28.68603516 36.09326172 C-27.01705611 35.01105955 -25.38878705 33.86690332 -23.76171875 32.72265625 C-21 31 -21 31 -18 31 C-17.88785156 30.47921875 -17.77570312 29.9584375 -17.66015625 29.421875 C-16.80140373 26.27142197 -15.62376488 23.29170481 -14.4375 20.25 C-13.98246094 19.07953125 -13.52742188 17.9090625 -13.05859375 16.703125 C-12.70925781 15.81109375 -12.35992187 14.9190625 -12 14 C-11 17 -11 17 -11 19 C-10.62488281 18.29875 -10.24976562 17.5975 -9.86328125 16.875 C-6.75714303 11.11651706 -3.53279165 5.50699874 0 0 Z " fill="#C696EA" transform="translate(68,44)"/>
<path d="M0 0 C2.50687224 2.50687224 2.67362635 4.24791073 3.4375 7.6875 C4.55440155 12.42293462 5.90794782 16.61665257 8 21 C10.64 21 13.28 21 16 21 C15.67 19.02 15.34 17.04 15 15 C16.98 15.66 18.96 16.32 21 17 C21.66 12.05 22.32 7.1 23 2 C23.33 2 23.66 2 24 2 C24.66 6.62 25.32 11.24 26 16 C30.81115706 14.27468064 30.81115706 14.27468064 34 12 C33.690625 12.5775 33.38125 13.155 33.0625 13.75 C32.07416636 15.84294184 31.4831387 17.74535275 31 20 C33.73249341 20.75277515 36.28100683 21.16641703 39.109375 21.31640625 C39.86347656 21.35830078 40.61757812 21.40019531 41.39453125 21.44335938 C42.56048828 21.50233398 42.56048828 21.50233398 43.75 21.5625 C44.54277344 21.60568359 45.33554688 21.64886719 46.15234375 21.69335938 C48.10137815 21.79902991 50.05066748 21.89997966 52 22 C52 23.32 52 24.64 52 26 C45.07 26 38.14 26 31 26 C31.66 28.64 32.32 31.28 33 34 C32.401875 33.67 31.80375 33.34 31.1875 33 C28.94613529 31.79212012 28.94613529 31.79212012 26 32 C24.64908472 34.70183055 24.66141942 37.11808206 24.4375 40.125 C24.35371094 41.22070312 24.26992187 42.31640625 24.18359375 43.4453125 C24.09271484 44.70988281 24.09271484 44.70988281 24 46 C23.34 46 22.68 46 22 46 C21.505 38.575 21.505 38.575 21 31 C19.35 31 17.7 31 16 31 C14.32656552 30.70250054 12.65694085 30.37872934 11 30 C10.67 30.66 10.34 31.32 10 32 C9.34 31.34 8.68 30.68 8 30 C5.76655935 30.19890456 5.76655935 30.19890456 3.375 30.875 C2.55773437 31.07867187 1.74046875 31.28234375 0.8984375 31.4921875 C0.27195312 31.65976563 -0.35453125 31.82734375 -1 32 C-1.33 31.34 -1.66 30.68 -2 30 C6.60037933 27.25959857 17.08940464 24.16578654 26 27 C26 26.34 26 25.68 26 25 C27.98 24.67 29.96 24.34 32 24 C30.02 23.67 28.04 23.34 26 23 C26 22.34 26 21.68 26 21 C23.69745827 21.53135578 21.53754868 22.1680419 19.3125 22.9765625 C15.72855901 24.08386502 12.34910646 24.57000008 8.625 25 C4.49965515 25.49763512 0.452797 26.02215247 -3.5625 27.125 C-6.86638556 27.96598905 -9.60959263 28.16952037 -13 28 C-12.67 26.02 -12.34 24.04 -12 22 C-10.515 22.99 -10.515 22.99 -9 24 C-6.65739357 23.7397104 -4.32275177 23.40047444 -2 23 C-0.33371045 22.96454703 1.33409803 22.94951812 3 23 C2.55460971 18.32340193 2.02117836 13.82296895 0.9375 9.25 C0.19105905 6.09283122 -0.21061456 3.26452575 0 0 Z " fill="#8F7D95" transform="translate(102,33)"/>
<path d="M0 0 C0.495 1.485 0.495 1.485 1 3 C-0.109375 5.04296875 -0.109375 5.04296875 -1.75 7.1875 C-2.28109375 7.90292969 -2.8121875 8.61835938 -3.359375 9.35546875 C-3.90078125 9.89816406 -4.4421875 10.44085938 -5 11 C-5.99 11 -6.98 11 -8 11 C-8.36544911 12.89369084 -8.71689175 14.79008782 -9.0625 16.6875 C-9.25972656 17.74324219 -9.45695312 18.79898437 -9.66015625 19.88671875 C-9.99355473 22.94095544 -9.72002105 25.04438911 -9 28 C-9 31 -9 31 -9.5625 33.9375 C-10.18374966 36.86425059 -10.18374966 36.86425059 -9.4375 39.125 C-8.84442733 41.66674001 -9.68090268 42.82736912 -11 45 C-13.02331826 39.94170435 -14.50659665 35.14908719 -15.47265625 29.78515625 C-15.73369141 28.90150391 -15.73369141 28.90150391 -16 28 C-16.66 27.67 -17.32 27.34 -18 27 C-18.26683594 27.86238281 -18.53367187 28.72476563 -18.80859375 29.61328125 C-19.99314886 32.98052478 -21.427334 36.01760818 -23.0625 39.1875 C-24.57707185 42.13147217 -25.95277469 44.85832407 -27 48 C-27.99 47.67 -28.98 47.34 -30 47 C-30 45.68 -30 44.36 -30 43 C-30.61488281 44.12019531 -31.22976562 45.24039063 -31.86328125 46.39453125 C-32.67942102 47.8673352 -33.49584201 49.33998334 -34.3125 50.8125 C-34.71662109 51.55048828 -35.12074219 52.28847656 -35.53710938 53.04882812 C-35.93349609 53.76103516 -36.32988281 54.47324219 -36.73828125 55.20703125 C-37.09962158 55.8616333 -37.46096191 56.51623535 -37.83325195 57.19067383 C-39.0409622 59.06352184 -40.37188437 60.48656925 -42 62 C-40.35085684 51.94875675 -37.13266009 43.60584884 -32.0625 34.75 C-31.54848633 33.84548096 -31.03447266 32.94096191 -30.50488281 32.0090332 C-27.78073304 27.40931761 -25.38887291 24.15854952 -21 21 C-19.56192927 19.30579794 -18.16730319 17.57399833 -16.8125 15.8125 C-12.18730464 10.0310058 -6.74088909 3.37044454 0 0 Z " fill="#F7DDFE" transform="translate(97,4)"/>
<path d="M0 0 C3.27555679 1.73490636 4.77656732 2.61095197 5.97265625 6.19921875 C4.98265625 7.68421875 4.98265625 7.68421875 3.97265625 9.19921875 C3.37453125 8.88984375 2.77640625 8.58046875 2.16015625 8.26171875 C-2.05404102 6.21482293 -5.36218361 5.71661598 -10.02734375 6.19921875 C-13.11067708 8.11588542 -13.11067708 8.11588542 -15.02734375 11.19921875 C-15.69631017 15.36167648 -15.4792884 17.39962437 -13.40234375 21.07421875 C-10.45930911 23.70746027 -8.96015846 24.12210474 -5.02734375 24.19921875 C-1.2467533 23.34625197 -1.2467533 23.34625197 1.97265625 22.19921875 C1.97265625 20.87921875 1.97265625 19.55921875 1.97265625 18.19921875 C-0.66734375 17.86921875 -3.30734375 17.53921875 -6.02734375 17.19921875 C-6.35734375 16.20921875 -6.68734375 15.21921875 -7.02734375 14.19921875 C-6.69734375 13.53921875 -6.36734375 12.87921875 -6.02734375 12.19921875 C-1.07734375 12.19921875 3.87265625 12.19921875 8.97265625 12.19921875 C8.78491793 19.05166754 8.26690709 22.87746848 3.54296875 27.921875 C0.23729883 30.61081546 -3.53502047 30.5961414 -7.609375 30.54296875 C-11.82769888 29.94327166 -14.87539211 27.99602091 -18.02734375 25.19921875 C-21.42133774 20.53247701 -21.88493063 15.79302407 -21.02734375 10.19921875 C-19.64488614 6.00247243 -17.47212879 3.17981605 -13.77734375 0.76171875 C-9.18655009 -1.50424992 -4.79518497 -1.89405187 0 0 Z " fill="#853EDB" transform="translate(120.02734375,135.80078125)"/>
<path d="M0 0 C1.28966814 2.57933627 0.81931846 3.30153914 -0.0625 6 C-4.61179949 18.84508092 -13.50788188 30.33858792 -24.8125 37.875 C-29.24149732 39.43817552 -33.35138267 39.24804875 -38 39 C-35.34444519 33.27661246 -30.84422569 29.87538055 -26 26 C-24.31002677 24.35697047 -22.64783606 22.68528688 -21 21 C-20.31679688 20.32710937 -19.63359375 19.65421875 -18.9296875 18.9609375 C-15.228111 15.30955187 -11.62871235 11.64162625 -8.25 7.6875 C-5.73189631 4.7467775 -3.14601612 2.28801172 0 0 Z " fill="#6826C1" transform="translate(58,85)"/>
<path d="M0 0 C0.33 1.32 0.66 2.64 1 4 C1.66 4 2.32 4 3 4 C3 4.66 3 5.32 3 6 C5.97 6.495 5.97 6.495 9 7 C7.87548273 9.9719385 6.77706209 12.33440687 5 15 C5.53109375 14.4946875 6.0621875 13.989375 6.609375 13.46875 C7.31578125 12.8190625 8.0221875 12.169375 8.75 11.5 C9.44609375 10.8503125 10.1421875 10.200625 10.859375 9.53125 C13 8 13 8 17 8 C15.63560848 13.15436796 12.27426385 16.06648401 8 19 C7.34 19 6.68 19 6 19 C5.5359375 19.928125 5.5359375 19.928125 5.0625 20.875 C4.375 22.25 3.6875 23.625 3 25 C5.31 25.33 7.62 25.66 10 26 C7.00424804 28.99575196 4.07305719 29.12597687 -0.0390625 29.1328125 C-1.15667969 29.13474609 -1.15667969 29.13474609 -2.296875 29.13671875 C-3.06515625 29.13285156 -3.8334375 29.12898438 -4.625 29.125 C-5.40101562 29.12886719 -6.17703125 29.13273437 -6.9765625 29.13671875 C-12.74659734 29.12670133 -12.74659734 29.12670133 -15 28 C-14.505 26.515 -14.505 26.515 -14 25 C-12.02 24.67 -10.04 24.34 -8 24 C-8.061875 23.030625 -8.12375 22.06125 -8.1875 21.0625 C-8.15520067 13.05226655 -4.43888908 6.43902092 0 0 Z " fill="#26045D" transform="translate(18,98)"/>
<path d="M0 0 C0.495 1.98 0.495 1.98 1 4 C1.66 4 2.32 4 3 4 C3 4.66 3 5.32 3 6 C6.3 6 9.6 6 13 6 C9.00889681 7.9955516 7.30013434 8.19546065 3 8 C3 8.66 3 9.32 3 10 C1.845 9.938125 0.69 9.87625 -0.5 9.8125 C-17.46603979 9.83913429 -34.26905798 15.82299341 -49.33691406 23.09033203 C-50.15772461 23.47946777 -50.97853516 23.86860352 -51.82421875 24.26953125 C-52.55729248 24.62635986 -53.29036621 24.98318848 -54.0456543 25.35083008 C-56 26 -56 26 -59 25 C-58.01 24.67 -57.02 24.34 -56 24 C-56 23.34 -56 22.68 -56 22 C-60.26849559 22.89863065 -63.80558358 23.71616163 -67.5 26.0625 C-71.26864632 28.40376065 -74.60893718 28.69185524 -79 29 C-75.0949151 25.44992282 -72.02265357 24.18180084 -67 23 C-67 22.34 -67 21.68 -67 21 C-66.36908447 20.79842285 -65.73816895 20.5968457 -65.08813477 20.38916016 C-62.24368706 19.47555745 -59.40311438 18.55044903 -56.5625 17.625 C-55.56927734 17.30789062 -54.57605469 16.99078125 -53.55273438 16.6640625 C-52.60849609 16.3546875 -51.66425781 16.0453125 -50.69140625 15.7265625 C-49.81685791 15.44377441 -48.94230957 15.16098633 -48.04125977 14.86962891 C-45.82251791 14.18468928 -45.82251791 14.18468928 -45 12 C-39.69858447 10.15235404 -34.0041863 9.76223372 -28.44921875 9.27734375 C-26.16896005 9.01913264 -24.04054502 8.60174542 -21.8125 8.0625 C-15.30619544 6.50051714 -8.63227782 5.82138882 -2 5 C-1.34 3.35 -0.68 1.7 0 0 Z " fill="#DFBEF0" transform="translate(125,50)"/>
<path d="M0 0 C2.09094269 -0.04566772 4.18217211 -0.07834115 6.2734375 -0.10546875 C7.43794434 -0.12504639 8.60245117 -0.14462402 9.80224609 -0.16479492 C13.95739829 0.04933912 16.02926735 1.10744452 19 4 C22.84520804 9.42798133 23.0602604 14.53583174 22 21 C20.00844874 24.85033243 17.31144413 27.12570391 13.75 29.5 C9.44159973 30.2833455 5.30715768 29.61889256 1 29 C-0.07917226 25.76248322 -0.11425601 23.42248229 -0.09765625 20.01953125 C-0.09443359 18.85615234 -0.09121094 17.69277344 -0.08789062 16.49414062 C-0.07951172 15.27919922 -0.07113281 14.06425781 -0.0625 12.8125 C-0.05798828 11.58595703 -0.05347656 10.35941406 -0.04882812 9.09570312 C-0.03703065 6.06375332 -0.02056921 3.03190094 0 0 Z M6 5 C6 11.27 6 17.54 6 24 C11.78963637 24.60283309 11.78963637 24.60283309 14.8125 21.875 C17.27479759 18.63883746 18.08284788 17.05954592 18 13 C16.35035017 9.82289663 14.96314357 7.6621612 12 5.625 C9.71291032 4.80115 9.71291032 4.80115 6 5 Z " fill="#7840C0" transform="translate(28,136)"/>
<path d="M0 0 C2.3181362 1.89111111 3.66914015 3.33828031 5 6 C5.15266612 7.73868744 5.24932596 9.48247501 5.31640625 11.2265625 C5.35830078 12.2578125 5.40019531 13.2890625 5.44335938 14.3515625 C5.48267578 15.43179688 5.52199219 16.51203125 5.5625 17.625 C5.60568359 18.71296875 5.64886719 19.8009375 5.69335938 20.921875 C5.7996453 23.6144517 5.90168057 26.30712253 6 29 C4.35 29.33 2.7 29.66 1 30 C-0.36421031 27.27157939 0.12192789 25.39046682 0.4375 22.375 C0.53933594 21.37210938 0.64117187 20.36921875 0.74609375 19.3359375 C0.82988281 18.56507813 0.91367188 17.79421875 1 17 C-2.3 17 -5.6 17 -9 17 C-9 20.96 -9 24.92 -9 29 C-10.65 29.33 -12.3 29.66 -14 30 C-16.48010861 27.51989139 -15.33057895 21.1380215 -15.375 17.8125 C-15.41238281 16.77029297 -15.44976562 15.72808594 -15.48828125 14.65429688 C-15.5873789 5.99426375 -15.5873789 5.99426375 -12.6640625 2.32421875 C-8.33097962 -1.45611016 -5.46447535 -1.24628385 0 0 Z M-8.8125 6.5 C-9.204375 6.995 -9.59625 7.49 -10 8 C-9.34 9.32 -8.68 10.64 -8 12 C-3.34947128 12.26932521 -3.34947128 12.26932521 1 11 C-0.08784968 7.75016865 -0.08784968 7.75016865 -2 5 C-5.72153269 4.60727943 -5.72153269 4.60727943 -8.8125 6.5 Z " fill="#7C43C6" transform="translate(229,136)"/>
<path d="M0 0 C2.20364141 2.75769982 3.70741315 5.4013025 5.125 8.625 C9.23665637 16.99692683 15.40431186 24.17969416 24 28 C26.32587107 28.7859525 28.61105945 29.41495334 31 30 C31 30.66 31 31.32 31 32 C18.82684041 35.82259965 9.97566911 36.0392667 -2 31 C-8.09608098 27.37821071 -12.23418139 22.95242297 -16 17 C-15.38125 16.87625 -14.7625 16.7525 -14.125 16.625 C-11.80879168 16.12802644 -11.80879168 16.12802644 -10 14 C-10 16.31 -10 18.62 -10 21 C-8.02 21.66 -6.04 22.32 -4 23 C-4 23.66 -4 24.32 -4 25 C-3.443125 24.79375 -2.88625 24.5875 -2.3125 24.375 C0.659538 23.89304789 2.31979941 24.73434972 5 26 C5.33 25.34 5.66 24.68 6 24 C7.32 24 8.64 24 10 24 C10.33 23.01 10.66 22.02 11 21 C10.195625 20.7525 9.39125 20.505 8.5625 20.25 C6 19 6 19 5.375 17.3125 C5.25125 16.549375 5.1275 15.78625 5 15 C3.71303051 11.86650907 2.42933859 8.79088687 0.8125 5.8125 C0 4 0 4 0 0 Z " fill="#742DCC" transform="translate(122,91)"/>
<path d="M0 0 C1.27230469 0.01804688 2.54460937 0.03609375 3.85546875 0.0546875 C5.31919922 0.08949219 5.31919922 0.08949219 6.8125 0.125 C6.855221 1.79111905 6.85313832 3.45882885 6.8125 5.125 C5.07293342 6.86456658 2.6188378 6.49690386 0.25 6.6875 C-1.26787109 6.81318359 -1.26787109 6.81318359 -2.81640625 6.94140625 C-3.59886719 7.00199219 -4.38132812 7.06257812 -5.1875 7.125 C-3.02830034 9.44664728 -0.84394515 11.06629719 1.875 12.6875 C4.18459151 14.06809381 5.89755492 15.21005492 7.8125 17.125 C9.18904049 22.72293134 9.18904049 22.72293134 8.8125 25.125 C6.8046875 27.8984375 6.8046875 27.8984375 3.8125 30.125 C0.93106194 30.33103029 -1.20390721 30.30942048 -4 29.9375 C-4.69287109 29.86724609 -5.38574219 29.79699219 -6.09960938 29.72460938 C-7.79824484 29.54888847 -9.4934164 29.3402232 -11.1875 29.125 C-11.1875 27.475 -11.1875 25.825 -11.1875 24.125 C-6.5675 24.125 -1.9475 24.125 2.8125 24.125 C2.26601781 20.02550397 2.26601781 20.02550397 -0.65625 18.4921875 C-1.6565625 17.99976563 -2.656875 17.50734375 -3.6875 17 C-9.09487564 14.31024871 -9.09487564 14.31024871 -10.1875 12.125 C-10.33351706 10.46265189 -10.40839834 8.79349493 -10.4375 7.125 C-10.46328125 6.238125 -10.4890625 5.35125 -10.515625 4.4375 C-10.40734375 3.674375 -10.2990625 2.91125 -10.1875 2.125 C-6.4507157 -0.36618953 -4.44298181 -0.0815226 0 0 Z " fill="#6E3EB7" transform="translate(300.1875,135.875)"/>
<path d="M0 0 C2.13093906 1.06546953 3.36587557 2.29159719 5 4 C3.44499019 7.81684226 0.96404505 10.19195732 -2 13 C-1.34 13.33 -0.68 13.66 0 14 C-1.28965176 15.37562854 -2.62689293 16.70766393 -4 18 C-4.66 18 -5.32 18 -6 18 C-6.226875 18.556875 -6.45375 19.11375 -6.6875 19.6875 C-8.37550036 22.66159588 -10.46676517 24.72008865 -13 27 C-13.66 27 -14.32 27 -15 27 C-13.87548273 24.0280615 -12.77706209 21.66559313 -11 19 C-12.98 18.67 -14.96 18.34 -17 18 C-17 17.34 -17 16.68 -17 16 C-17.66 16 -18.32 16 -19 16 C-19.4375 13.9375 -19.4375 13.9375 -19 11 C-16.87919817 8.42739828 -14.49372439 6.20745501 -12 4 C-11.67 4.99 -11.34 5.98 -11 7 C-10.37351562 6.57847656 -9.74703125 6.15695313 -9.1015625 5.72265625 C-8.28429688 5.17480469 -7.46703125 4.62695312 -6.625 4.0625 C-5.81289063 3.51722656 -5.00078125 2.97195312 -4.1640625 2.41015625 C-2 1 -2 1 0 0 Z " fill="#8536E1" transform="translate(38,86)"/>
<path d="M0 0 C1.18613892 0.00785522 1.18613892 0.00785522 2.39624023 0.01586914 C3.67724609 0.02070313 3.67724609 0.02070313 4.98413086 0.02563477 C5.88196289 0.03401367 6.77979492 0.04239258 7.70483398 0.05102539 C8.6065332 0.05553711 9.50823242 0.06004883 10.43725586 0.06469727 C12.67234712 0.07652315 14.90730835 0.09300319 17.14233398 0.11352539 C16.81233398 1.76352539 16.48233398 3.41352539 16.14233398 5.11352539 C13.14233398 6.11352539 13.14233398 6.11352539 10.14233398 5.11352539 C10.14233398 13.03352539 10.14233398 20.95352539 10.14233398 29.11352539 C6.14233398 30.11352539 6.14233398 30.11352539 4.14233398 29.11352539 C4.14233398 21.52352539 4.14233398 13.93352539 4.14233398 6.11352539 C1.17233398 5.61852539 1.17233398 5.61852539 -1.85766602 5.11352539 C-2.42016602 3.17602539 -2.42016602 3.17602539 -2.85766602 1.11352539 C-1.85766602 0.11352539 -1.85766602 0.11352539 0 0 Z " fill="#883DE1" transform="translate(177.857666015625,135.886474609375)"/>
<path d="M0 0 C0.33 0.99 0.66 1.98 1 3 C-0.109375 5.04296875 -0.109375 5.04296875 -1.75 7.1875 C-2.28109375 7.90292969 -2.8121875 8.61835938 -3.359375 9.35546875 C-3.90078125 9.89816406 -4.4421875 10.44085938 -5 11 C-5.99 11 -6.98 11 -8 11 C-8.33634376 12.93697967 -8.66897165 14.87460486 -9 16.8125 C-9.185625 17.89144531 -9.37125 18.97039063 -9.5625 20.08203125 C-10.07413786 23.00270898 -10.07413786 23.00270898 -10 26 C-12 27.6875 -12 27.6875 -14 29 C-14.66 26.03 -15.32 23.06 -16 20 C-16.37511719 20.90363281 -16.75023438 21.80726562 -17.13671875 22.73828125 C-17.64847656 23.91777344 -18.16023438 25.09726562 -18.6875 26.3125 C-19.18636719 27.48425781 -19.68523437 28.65601563 -20.19921875 29.86328125 C-22.16211911 33.28238969 -23.58440589 34.20667514 -27 36 C-27.66 36.99 -28.32 37.98 -29 39 C-29.66 39 -30.32 39 -31 39 C-30.566875 37.7315625 -30.566875 37.7315625 -30.125 36.4375 C-28.93545917 33.01321965 -28.93545917 33.01321965 -28.25 29.4375 C-26.95059231 25.86412885 -25.81184311 24.76162302 -22.82421875 22.5625 C-20.45092764 20.52970247 -18.67836939 18.20739108 -16.75 15.75 C-12.14781967 9.98360087 -6.71575651 3.35787825 0 0 Z " fill="#F8E3F9" transform="translate(97,4)"/>
<path d="M0 0 C0.33 0.66 0.66 1.32 1 2 C1.66 2.33 2.32 2.66 3 3 C1.02 5.31 -0.96 7.62 -3 10 C-1.68 9.01 -0.36 8.02 1 7 C1.66 7.33 2.32 7.66 3 8 C1.35588065 9.81718454 -0.12175539 11.07102398 -2.25 12.3125 C-5.2944032 14.18065651 -7.74306894 16.36742384 -10.3515625 18.79296875 C-12 20 -12 20 -15 20 C-13.58845234 16.58875982 -11.93778777 15.1543777 -9 13 C-9 12.34 -9 11.68 -9 11 C-10.9600281 9.36323743 -10.9600281 9.36323743 -13 8 C-13.54269531 8.34933594 -14.08539063 8.69867188 -14.64453125 9.05859375 C-15.35996094 9.51363281 -16.07539062 9.96867187 -16.8125 10.4375 C-17.87404297 11.11619141 -17.87404297 11.11619141 -18.95703125 11.80859375 C-21 13 -21 13 -24 14 C-24 11.875 -24 11.875 -23 9 C-20.50224217 6.74515308 -17.80198037 4.85734917 -15 3 C-14.34 3.33 -13.68 3.66 -13 4 C-13.33 4.66 -13.66 5.32 -14 6 C-9.38 4.02 -4.76 2.04 0 0 Z " fill="#A457F3" transform="translate(51,79)"/>
<path d="M0 0 C1.28966814 2.57933627 0.81931846 3.30153914 -0.0625 6 C-3.09368741 14.58377161 -8.40852222 21.90159913 -14 29 C-15.32 28.67 -16.64 28.34 -18 28 C-17.34 26.68 -16.68 25.36 -16 24 C-16.66 23.67 -17.32 23.34 -18 23 C-17.67 22.34 -17.34 21.68 -17 21 C-16.34 21 -15.68 21 -15 21 C-14.86464844 20.443125 -14.72929688 19.88625 -14.58984375 19.3125 C-12.18243453 10.77845056 -7.12114019 5.17901105 0 0 Z " fill="#762DD1" transform="translate(58,85)"/>
<path d="M0 0 C-1.32 0.33 -2.64 0.66 -4 1 C-3.938125 2.258125 -3.87625 3.51625 -3.8125 4.8125 C-3.80557548 8.75255061 -3.80557548 8.75255061 -5.375 10.75 C-5.91125 11.1625 -6.4475 11.575 -7 12 C-8.17574711 14.09989652 -8.17574711 14.09989652 -9 16 C-8.34 16 -7.68 16 -7 16 C-6.34 15.34 -5.68 14.68 -5 14 C-5.875 17.875 -5.875 17.875 -7 19 C-7.26293056 23.03160191 -7.29404844 24.55892734 -5 28 C-5 28.99 -5 29.98 -5 31 C-5.66 31 -6.32 31 -7 31 C-11.75239071 18.84665301 -11.75239071 18.84665301 -13.8125 13.0625 C-14.04582031 12.41410156 -14.27914062 11.76570313 -14.51953125 11.09765625 C-15.1443584 8.36975233 -15.07534964 5.78793666 -15 3 C-13.06643218 2.30151736 -11.12797702 1.61655186 -9.1875 0.9375 C-8.10855469 0.55464844 -7.02960938 0.17179687 -5.91796875 -0.22265625 C-3 -1 -3 -1 0 0 Z " fill="#D1A4EF" transform="translate(107,65)"/>
<path d="M0 0 C1.32 0 2.64 0 4 0 C4.01981934 0.62567871 4.03963867 1.25135742 4.06005859 1.89599609 C4.15514226 4.72276519 4.26488746 7.54877815 4.375 10.375 C4.4059375 11.35984375 4.436875 12.3446875 4.46875 13.359375 C4.50742187 14.30039063 4.54609375 15.24140625 4.5859375 16.2109375 C4.6173584 17.08024902 4.6487793 17.94956055 4.68115234 18.84521484 C4.81229433 21.20961794 4.81229433 21.20961794 7 23 C9.31765729 23.71927295 11.65095874 24.3909893 14 25 C14 26.32 14 27.64 14 29 C12.41820385 29.10867302 10.83422847 29.18589827 9.25 29.25 C8.36828125 29.29640625 7.4865625 29.3428125 6.578125 29.390625 C3.12655048 28.86765916 2.15443822 27.70772687 0 25 C-0.45410156 22.25097656 -0.45410156 22.25097656 -0.390625 19.140625 C-0.37773437 18.02558594 -0.36484375 16.91054687 -0.3515625 15.76171875 C-0.31804687 14.60285156 -0.28453125 13.44398438 -0.25 12.25 C-0.23195313 11.07566406 -0.21390625 9.90132812 -0.1953125 8.69140625 C-0.1481912 5.7934466 -0.08241305 2.89713582 0 0 Z " fill="#7D49C1" transform="translate(257,136)"/>
<path d="M0 0 C0.33 1.32 0.66 2.64 1 4 C1.66 4 2.32 4 3 4 C3 4.66 3 5.32 3 6 C5.97 6.495 5.97 6.495 9 7 C8.33333333 8.66666667 7.66666667 10.33333333 7 12 C6.690625 12.86625 6.38125 13.7325 6.0625 14.625 C4.94155122 17.13065022 4.27150058 18.45862461 2 20 C-1.1875 20.1875 -1.1875 20.1875 -4 20 C-5.6642154 13.50955993 -4.47381768 7.77757946 -1.375 1.9375 C-0.694375 0.9784375 -0.694375 0.9784375 0 0 Z " fill="#4D189B" transform="translate(18,98)"/>
<path d="M0 0 C4.95 0 9.9 0 15 0 C14.88012113 8.9909151 14.88012113 8.9909151 12.48046875 11.7421875 C8.32684618 14.69781788 4.57070582 16.14851982 -0.5625 16.25 C-1.34753906 16.27578125 -2.13257812 16.3015625 -2.94140625 16.328125 C-3.62074219 16.21984375 -4.30007812 16.1115625 -5 16 C-5.66 15.01 -6.32 14.02 -7 13 C-6.24074219 13.02320313 -5.48148437 13.04640625 -4.69921875 13.0703125 C-3.20841797 13.09738281 -3.20841797 13.09738281 -1.6875 13.125 C-0.20830078 13.15980469 -0.20830078 13.15980469 1.30078125 13.1953125 C4.22406527 13.20682639 4.22406527 13.20682639 7 11 C7.72965366 8.43717258 7.72965366 8.43717258 8 6 C5.36 5.67 2.72 5.34 0 5 C-0.33 4.01 -0.66 3.02 -1 2 C-0.67 1.34 -0.34 0.68 0 0 Z " fill="#753CC3" transform="translate(114,148)"/>
<path d="M0 0 C2.50687224 2.50687224 2.67362635 4.24791073 3.4375 7.6875 C4.55440155 12.42293462 5.90794782 16.61665257 8 21 C14.435 20.505 14.435 20.505 21 20 C21 20.99 21 21.98 21 23 C20.15405273 23.12060791 20.15405273 23.12060791 19.29101562 23.24365234 C16.6933762 23.61649125 14.09670443 23.99570609 11.5 24.375 C10.613125 24.50132813 9.72625 24.62765625 8.8125 24.7578125 C4.67139811 25.36679807 0.6159629 26.04115721 -3.4375 27.09375 C-6.79764508 27.94852375 -9.55430101 28.17228495 -13 28 C-12.67 26.02 -12.34 24.04 -12 22 C-10.515 22.99 -10.515 22.99 -9 24 C-6.65739357 23.7397104 -4.32275177 23.40047444 -2 23 C-0.33371045 22.96454703 1.33409803 22.94951812 3 23 C2.55460971 18.32340193 2.02117836 13.82296895 0.9375 9.25 C0.19105905 6.09283122 -0.21061456 3.26452575 0 0 Z " fill="#AE75E1" transform="translate(102,33)"/>
<path d="M0 0 C0 0.99 0 1.98 0 3 C0.99 2.34 1.98 1.68 3 1 C5.2265625 0.5859375 5.2265625 0.5859375 7.625 0.375 C8.42164063 0.30023438 9.21828125 0.22546875 10.0390625 0.1484375 C11.02446196 0.07384551 12.01178137 0 13 0 C13.25 2.25 13.25 2.25 13 5 C11 7.3125 11 7.3125 9 9 C9.66 9.66 10.32 10.32 11 11 C9.88121617 12.17262904 8.75476949 13.33795138 7.625 14.5 C6.99851562 15.1496875 6.37203125 15.799375 5.7265625 16.46875 C4 18 4 18 2 18 C3.12451727 15.0280615 4.22293791 12.66559313 6 10 C3.03 9.505 3.03 9.505 0 9 C0 8.34 0 7.68 0 7 C-0.66 7 -1.32 7 -2 7 C-2.125 4.625 -2.125 4.625 -2 2 C-1.34 1.34 -0.68 0.68 0 0 Z " fill="#6220B5" transform="translate(21,95)"/>
<path d="M0 0 C3.3 0 6.6 0 10 0 C10.99 0.99 11.98 1.98 13 3 C12 4 12 4 10.15234375 4.09765625 C8.1015625 4.06510417 6.05078125 4.03255208 4 4 C4.00523682 4.59014893 4.01047363 5.18029785 4.01586914 5.78833008 C4.03666047 8.46304255 4.04966701 11.13773801 4.0625 13.8125 C4.07087891 14.74126953 4.07925781 15.67003906 4.08789062 16.62695312 C4.09111328 17.51962891 4.09433594 18.41230469 4.09765625 19.33203125 C4.10289307 20.15421143 4.10812988 20.9763916 4.11352539 21.82348633 C4 24 4 24 3 27 C2.01 27 1.02 27 0 27 C0 18.09 0 9.18 0 0 Z " fill="#823DD4" transform="translate(30,137)"/>
<path d="M0 0 C0 0.66 0 1.32 0 2 C0.99 2 1.98 2 3 2 C3.33 2.66 3.66 3.32 4 4 C4.66 4 5.32 4 6 4 C6 3.34 6 2.68 6 2 C7.98 1.67 9.96 1.34 12 1 C12.66 3.31 13.32 5.62 14 8 C13.401875 7.67 12.80375 7.34 12.1875 7 C9.94613529 5.79212012 9.94613529 5.79212012 7 6 C5.64908472 8.70183055 5.66141942 11.11808206 5.4375 14.125 C5.35371094 15.22070312 5.26992187 16.31640625 5.18359375 17.4453125 C5.09271484 18.70988281 5.09271484 18.70988281 5 20 C4.34 20 3.68 20 3 20 C2.67 15.05 2.34 10.1 2 5 C0.35 5 -1.3 5 -3 5 C-4.67343448 4.70250054 -6.34305915 4.37872934 -8 4 C-8.33 4.66 -8.66 5.32 -9 6 C-9.66 5.34 -10.32 4.68 -11 4 C-13.23344065 4.19890456 -13.23344065 4.19890456 -15.625 4.875 C-16.44226563 5.07867187 -17.25953125 5.28234375 -18.1015625 5.4921875 C-18.72804688 5.65976563 -19.35453125 5.82734375 -20 6 C-20.33 5.34 -20.66 4.68 -21 4 C-14.07388633 1.97563957 -7.27605629 0 0 0 Z " fill="#786681" transform="translate(121,59)"/>
<path d="M0 0 C-0.66 0 -1.32 0 -2 0 C-2 0.66 -2 1.32 -2 2 C-2.99 2.495 -2.99 2.495 -4 3 C-3.34 3.66 -2.68 4.32 -2 5 C-2.80050781 5.41958984 -2.80050781 5.41958984 -3.6171875 5.84765625 C-9.02094552 8.75521463 -13.98687242 12.01383907 -18.93359375 15.64453125 C-21 17 -21 17 -23 17 C-21.70700306 14.11562221 -20.34058637 12.12780579 -18 10 C-19.32 9.01 -20.64 8.02 -22 7 C-19.75243216 5.84917315 -17.50218252 4.70423142 -15.25 3.5625 C-14.29867187 3.07426758 -14.29867187 3.07426758 -13.328125 2.57617188 C-5.02918261 -1.61652298 -5.02918261 -1.61652298 0 0 Z " fill="#C790F3" transform="translate(71,72)"/>
<path d="M0 0 C1.32 0 2.64 0 4 0 C4.33 9.57 4.66 19.14 5 29 C3.35 29.33 1.7 29.66 0 30 C-1.42336877 27.15326245 -1.00758837 24.85384653 -0.87890625 21.6796875 C-0.83056641 20.42285156 -0.78222656 19.16601562 -0.73242188 17.87109375 C-0.67634766 16.55238281 -0.62027344 15.23367187 -0.5625 13.875 C-0.50927587 12.53517562 -0.45653549 11.19533192 -0.40429688 9.85546875 C-0.27429992 6.57009113 -0.13932314 3.28499322 0 0 Z " fill="#8049C7" transform="translate(73,136)"/>
<path d="M0 0 C1.27230469 0.01804688 2.54460937 0.03609375 3.85546875 0.0546875 C5.31919922 0.08949219 5.31919922 0.08949219 6.8125 0.125 C6.855221 1.79111905 6.85313832 3.45882885 6.8125 5.125 C5.07293342 6.86456658 2.6188378 6.49690386 0.25 6.6875 C-1.26787109 6.81318359 -1.26787109 6.81318359 -2.81640625 6.94140625 C-3.59886719 7.00199219 -4.38132812 7.06257812 -5.1875 7.125 C-5.51968192 10.12759517 -5.51968192 10.12759517 -3.6875 11.8125 C-2.945 12.4621875 -2.945 12.4621875 -2.1875 13.125 C-5.1875 14.125 -5.1875 14.125 -7.3125 13.25 C-10.19773573 9.98006617 -10.00989684 6.36083528 -10.1875 2.125 C-6.4507157 -0.36618953 -4.44298181 -0.0815226 0 0 Z " fill="#8A4AE6" transform="translate(300.1875,135.875)"/>
<path d="M0 0 C0.99 0.33 1.98 0.66 3 1 C3.33 10.57 3.66 20.14 4 30 C3.34 30.33 2.68 30.66 2 31 C-0.125 30.0625 -0.125 30.0625 -2 29 C-1.88201056 25.03047101 -1.75778201 21.06119219 -1.62768555 17.09204102 C-1.58428777 15.74085853 -1.5426163 14.38961947 -1.50268555 13.03833008 C-1.44510048 11.09963299 -1.38085702 9.16113724 -1.31640625 7.22265625 C-1.27974854 6.05484619 -1.24309082 4.88703613 -1.20532227 3.68383789 C-1 1 -1 1 0 0 Z " fill="#7C47BE" transform="translate(152,135)"/>
<path d="M0 0 C0.68707555 2.49064888 1 4.37886292 1 7 C2.98 7.66 4.96 8.32 7 9 C7 9.66 7 10.32 7 11 C7.598125 10.814375 8.19625 10.62875 8.8125 10.4375 C11 10 11 10 14 11 C14.33 12.98 14.66 14.96 15 17 C16.98 17.33 18.96 17.66 21 18 C21 18.66 21 19.32 21 20 C12.51237485 19.2926979 6.17382568 15.89943343 0 10 C-1.79375993 7.72821961 -3.3917668 5.4123498 -5 3 C-4.360625 2.87625 -3.72125 2.7525 -3.0625 2.625 C-2.0415625 2.315625 -2.0415625 2.315625 -1 2 C-0.67 1.34 -0.34 0.68 0 0 Z " fill="#6F32B1" transform="translate(111,105)"/>
<path d="M0 0 C2.20364141 2.75769982 3.70741315 5.4013025 5.125 8.625 C9.23665637 16.99692683 15.40431186 24.17969416 24 28 C26.32587107 28.7859525 28.61105945 29.41495334 31 30 C31 30.66 31 31.32 31 32 C24.12418702 34.1591338 18.21471629 35.35482211 11 35 C11 34.67 11 34.34 11 34 C12.134375 33.855625 13.26875 33.71125 14.4375 33.5625 C17.80777201 33.38828522 17.80777201 33.38828522 19 32 C21.67058851 31.85884839 24.32432238 31.95752893 27 32 C27 31.34 27 30.68 27 30 C26.01 29.979375 25.02 29.95875 24 29.9375 C19.48946381 29.32698298 17.12647015 26.7607672 13.9296875 23.70703125 C11.9074224 21.76634915 11.9074224 21.76634915 8.5625 20.3125 C6 19 6 19 5.3125 17.25 C5.209375 16.5075 5.10625 15.765 5 15 C3.71303051 11.86650907 2.42933859 8.79088687 0.8125 5.8125 C0 4 0 4 0 0 Z " fill="#5E2896" transform="translate(122,91)"/>
<path d="M0 0 C1 2 1 2 0.5 4.4375 C-0.23853737 7.10448331 -0.23853737 7.10448331 1 10 C0.60024684 12.24476772 0.11034401 14.47421022 -0.4375 16.6875 C-0.72496094 17.86699219 -1.01242188 19.04648437 -1.30859375 20.26171875 C-1.53675781 21.16535156 -1.76492187 22.06898437 -2 23 C-0.80375 22.525625 0.3925 22.05125 1.625 21.5625 C5.06414238 20.26517227 8.33895604 19.45763049 12 19 C11 21 11 21 7.69140625 22.2890625 C6.31762852 22.74210268 4.94117319 23.18708349 3.5625 23.625 C2.52125977 23.96917969 2.52125977 23.96917969 1.45898438 24.3203125 C-3.70505487 26 -3.70505487 26 -6 26 C-5.34 21.38 -4.68 16.76 -4 12 C-4.99 12.33 -5.98 12.66 -7 13 C-5.35821735 8.22390502 -2.73453298 4.20617096 0 0 Z " fill="#C991F4" transform="translate(68,44)"/>
<path d="M0 0 C0.495 0.99 0.495 0.99 1 2 C1.99 2 2.98 2 4 2 C4 3.32 4 4.64 4 6 C3.42870361 5.80833252 2.85740723 5.61666504 2.26879883 5.41918945 C-0.4329405 4.92000873 -1.74389861 5.33727499 -4.30078125 6.29296875 C-5.11353516 6.59396484 -5.92628906 6.89496094 -6.76367188 7.20507812 C-7.60478516 7.52927734 -8.44589844 7.85347656 -9.3125 8.1875 C-10.14201172 8.49236328 -10.97152344 8.79722656 -11.82617188 9.11132812 C-15.67548365 10.56051653 -19.29332514 12.07973228 -22.828125 14.19140625 C-26.827921 16.47207811 -29.48290793 16.68301108 -34 17 C-30.0949151 13.44992282 -27.02265357 12.18180084 -22 11 C-22 10.34 -22 9.68 -22 9 C-21.36908447 8.79842285 -20.73816895 8.5968457 -20.08813477 8.38916016 C-17.24368706 7.47555745 -14.40311438 6.55044903 -11.5625 5.625 C-10.07266602 5.14933594 -10.07266602 5.14933594 -8.55273438 4.6640625 C-7.60849609 4.3546875 -6.66425781 4.0453125 -5.69140625 3.7265625 C-4.81685791 3.44377441 -3.94230957 3.16098633 -3.04125977 2.86962891 C-0.82251791 2.18468928 -0.82251791 2.18468928 0 0 Z " fill="#ECC7FA" transform="translate(80,62)"/>
<path d="M0 0 C0.66 0.33 1.32 0.66 2 1 C1.01 2.32 0.02 3.64 -1 5 C1.31 5.33 3.62 5.66 6 6 C3.00424804 8.99575196 0.07305719 9.12597687 -4.0390625 9.1328125 C-5.15667969 9.13474609 -5.15667969 9.13474609 -6.296875 9.13671875 C-7.06515625 9.13285156 -7.8334375 9.12898438 -8.625 9.125 C-9.40101562 9.12886719 -10.17703125 9.13273437 -10.9765625 9.13671875 C-16.74659734 9.12670133 -16.74659734 9.12670133 -19 8 C-18.67 7.01 -18.34 6.02 -18 5 C-12.72 4.34 -7.44 3.68 -2 3 C-2 2.34 -2 1.68 -2 1 C-1.34 0.67 -0.68 0.34 0 0 Z " fill="#481D85" transform="translate(22,118)"/>
<path d="M0 0 C0 0.66 0 1.32 0 2 C-2.97 2.66 -5.94 3.32 -9 4 C-9 4.66 -9 5.32 -9 6 C-12.51245739 7.96697614 -16.13751467 8.91579359 -20 10 C-21.3303125 10.556875 -21.3303125 10.556875 -22.6875 11.125 C-25 12 -25 12 -29 12 C-29.33 12.99 -29.66 13.98 -30 15 C-30 14.01 -30 13.02 -30 12 C-30.66 11.67 -31.32 11.34 -32 11 C-28.46378819 9.34226051 -24.92017608 7.70097041 -21.375 6.0625 C-19.87646484 5.35963867 -19.87646484 5.35963867 -18.34765625 4.64257812 C-16.88779297 3.9706543 -16.88779297 3.9706543 -15.3984375 3.28515625 C-14.06304932 2.66459351 -14.06304932 2.66459351 -12.70068359 2.03149414 C-8.42449903 0.39825605 -4.56236812 0 0 0 Z " fill="#451C81" transform="translate(101,64)"/>
<path d="M0 0 C1.18613892 0.00785522 1.18613892 0.00785522 2.39624023 0.01586914 C3.67724609 0.02070313 3.67724609 0.02070313 4.98413086 0.02563477 C5.88196289 0.03401367 6.77979492 0.04239258 7.70483398 0.05102539 C8.6065332 0.05553711 9.50823242 0.06004883 10.43725586 0.06469727 C12.67234712 0.07652315 14.90730835 0.09300319 17.14233398 0.11352539 C16.81233398 1.43352539 16.48233398 2.75352539 16.14233398 4.11352539 C16.14233398 3.12352539 16.14233398 2.13352539 16.14233398 1.11352539 C10.53233398 1.11352539 4.92233398 1.11352539 -0.85766602 1.11352539 C-0.85766602 1.77352539 -0.85766602 2.43352539 -0.85766602 3.11352539 C1.45233398 3.11352539 3.76233398 3.11352539 6.14233398 3.11352539 C6.14233398 11.36352539 6.14233398 19.61352539 6.14233398 28.11352539 C7.13233398 28.11352539 8.12233398 28.11352539 9.14233398 28.11352539 C9.47233398 27.12352539 9.80233398 26.13352539 10.14233398 25.11352539 C9.81233398 26.76352539 9.48233398 28.41352539 9.14233398 30.11352539 C7.49233398 29.78352539 5.84233398 29.45352539 4.14233398 29.11352539 C4.14233398 21.52352539 4.14233398 13.93352539 4.14233398 6.11352539 C1.17233398 5.61852539 1.17233398 5.61852539 -1.85766602 5.11352539 C-2.42016602 3.17602539 -2.42016602 3.17602539 -2.85766602 1.11352539 C-1.85766602 0.11352539 -1.85766602 0.11352539 0 0 Z " fill="#623CAC" transform="translate(177.857666015625,135.886474609375)"/>
<path d="M0 0 C1.3805087 3.76668598 0.59568159 6.44789173 -0.4375 10.25 C-0.72496094 11.32765625 -1.01242188 12.4053125 -1.30859375 13.515625 C-1.65083984 14.74539062 -1.65083984 14.74539062 -2 16 C-4.31 16.33 -6.62 16.66 -9 17 C-8.62341412 10.974626 -6.77169831 6.74187504 -3 2 C-2.01 1.34 -1.02 0.68 0 0 Z " fill="#A459ED" transform="translate(64,55)"/>
<path d="M0 0 C0.53625 0.474375 1.0725 0.94875 1.625 1.4375 C4.56040465 3.36868727 6.49226347 3.79366256 10 4 C13.78059045 3.14703322 13.78059045 3.14703322 17 2 C15.625 4 15.625 4 13 6 C9.6419531 6.35791096 6.36463643 6.23115823 3 6 C4.55090815 7.55090815 6.03696233 7.20677311 8.1875 7.25 C12.49956496 7.22257828 15.23143764 6.1534642 19 4 C19.99 4 20.98 4 22 4 C18.05916699 8.15385101 15.56498101 10.11028406 9.8125 10.375 C4.50421566 10.35759579 1.12604517 8.14793637 -3 5 C-2.67 4.34 -2.34 3.68 -2 3 C-1.01 3.33 -0.02 3.66 1 4 C0.67 2.68 0.34 1.36 0 0 Z " fill="#6B35AA" transform="translate(105,156)"/>
<path d="M0 0 C0.05395478 1.62463842 0.09277195 3.24978541 0.125 4.875 C0.14820312 5.77992188 0.17140625 6.68484375 0.1953125 7.6171875 C0 10 0 10 -2 12 C-2.33 9.36 -2.66 6.72 -3 4 C-9.34181682 8.48829065 -14.52166025 13.5132661 -19.640625 19.3515625 C-22.00322691 22.00362226 -24.46665896 24.51157635 -27 27 C-25.54122516 22.2917387 -22.76911057 19.18739459 -19.4375 15.6875 C-18.63820068 14.83526855 -18.63820068 14.83526855 -17.82275391 13.96582031 C-4.57465463 -0 -4.57465463 -0 0 0 Z " fill="#CBBCCE" transform="translate(100,1)"/>
<path d="M0 0 C1.28966814 2.57933627 0.81931846 3.30153914 -0.0625 6 C-3.09368741 14.58377161 -8.40852222 21.90159913 -14 29 C-15.32 28.67 -16.64 28.34 -18 28 C-17.38125 27.773125 -16.7625 27.54625 -16.125 27.3125 C-13.32481143 25.58297177 -13.11392953 24.0633062 -12 21 C-10.66666667 19 -9.33333333 17 -8 15 C-6.59212497 12.36880285 -5.29364068 9.68884818 -4 7 C-1.10714286 1.10714286 -1.10714286 1.10714286 0 0 Z " fill="#884FC8" transform="translate(58,85)"/>
<path d="M0 0 C0.66 0 1.32 0 2 0 C2 8.25 2 16.5 2 25 C2.99 25 3.98 25 5 25 C5.33 23.68 5.66 22.36 6 21 C9.96 20.505 9.96 20.505 14 20 C12.75 21.5 12.75 21.5 11 23 C9.68 23 8.36 23 7 23 C7 23.66 7 24.32 7 25 C10.3 24.34 13.6 23.68 17 23 C14 26 14 26 11 27 C9.26675881 26.91538508 7.53607188 26.76395645 5.8125 26.5625 C4.91144531 26.46066406 4.01039062 26.35882813 3.08203125 26.25390625 C2.39496094 26.17011719 1.70789063 26.08632812 1 26 C-0.01973129 22.94080612 -0.11533602 20.87581975 -0.09765625 17.67578125 C-0.09443359 16.64775391 -0.09121094 15.61972656 -0.08789062 14.56054688 C-0.07951172 13.48869141 -0.07113281 12.41683594 -0.0625 11.3125 C-0.05798828 10.22904297 -0.05347656 9.14558594 -0.04882812 8.02929688 C-0.03703743 5.35280915 -0.02058063 2.67643223 0 0 Z " fill="#5A28A8" transform="translate(28,139)"/>
<path d="M0 0 C4.29485956 4.29485956 5.73908762 11.5475371 7.0625 17.375 C7.81580401 20.99412553 7.81580401 20.99412553 9.6875 23.8125 C10.3371875 24.8953125 10.3371875 24.8953125 11 26 C10.67 26.99 10.34 27.98 10 29 C9.67 28.34 9.34 27.68 9 27 C7.35 27.33 5.7 27.66 4 28 C3.67 27.34 3.34 26.68 3 26 C3.66 26 4.32 26 5 26 C4.7834375 25.0409375 4.7834375 25.0409375 4.5625 24.0625 C4.10855668 21.59103082 3.8391633 19.24565805 3.625 16.75 C3.19713281 12.55549868 2.09632128 8.88395825 0.62109375 4.9453125 C0 3 0 3 0 0 Z " fill="#8242CF" transform="translate(116,76)"/>
<path d="M0 0 C0.39832031 0.48082031 0.79664063 0.96164063 1.20703125 1.45703125 C3.43450247 3.37391825 4.78834669 3.47741643 7.6875 3.6875 C8.49574219 3.75324219 9.30398437 3.81898438 10.13671875 3.88671875 C10.75160156 3.92410156 11.36648437 3.96148437 12 4 C13.06723961 7.46222615 13.10173486 10.64039266 13.0625 14.25 C13.05347656 15.32765625 13.04445312 16.4053125 13.03515625 17.515625 C13.02355469 18.33546875 13.01195312 19.1553125 13 20 C14.32 20.33 15.64 20.66 17 21 C15.35 21.33 13.7 21.66 12 22 C10.63578969 19.27157939 11.12192789 17.39046682 11.4375 14.375 C11.53933594 13.37210938 11.64117187 12.36921875 11.74609375 11.3359375 C11.82988281 10.56507813 11.91367188 9.79421875 12 9 C8.7 9 5.4 9 2 9 C2 8.34 2 7.68 2 7 C5.465 6.505 5.465 6.505 9 6 C6.36 5.67 3.72 5.34 1 5 C0.67 3.35 0.34 1.7 0 0 Z " fill="#7545BE" transform="translate(218,144)"/>
<path d="M0 0 C0.33 0 0.66 0 1 0 C1.33 1.65 1.66 3.3 2 5 C2.99 4.34 3.98 3.68 5 3 C5 3.99 5 4.98 5 6 C5.33 6.99 5.66 7.98 6 9 C5.835 9.804375 5.67 10.60875 5.5 11.4375 C4.81727169 13.92990494 4.81727169 13.92990494 5.5625 16.0625 C6.14582607 18.64580117 5.34051555 19.79209204 4 22 C1.42510668 15.56276671 -1 9.00892718 -1 2 C-0.67 1.34 -0.34 0.68 0 0 Z " fill="#EED4F3" transform="translate(82,27)"/>
<path d="M0 0 C0.8971875 0.495 0.8971875 0.495 1.8125 1 C-1.11786877 2.37000201 -4.05776914 3.71818552 -7 5.0625 C-7.83337891 5.45244141 -8.66675781 5.84238281 -9.52539062 6.24414062 C-10.32783203 6.60830078 -11.13027344 6.97246094 -11.95703125 7.34765625 C-12.69542236 7.68804932 -13.43381348 8.02844238 -14.19458008 8.37915039 C-16.1875 9 -16.1875 9 -19.1875 8 C-18.1975 7.67 -17.2075 7.34 -16.1875 7 C-16.1875 5.68 -16.1875 4.36 -16.1875 3 C-14.41891309 2.32739649 -12.64753984 1.66211605 -10.875 1 C-9.88886719 0.62875 -8.90273437 0.2575 -7.88671875 -0.125 C-4.75303537 -1.14083947 -3.02305425 -1.38196766 0 0 Z " fill="#D7A9F7" transform="translate(85.1875,67)"/>
<path d="M0 0 C5.61 0 11.22 0 17 0 C16.67 1.65 16.34 3.3 16 5 C14.35 4.67 12.7 4.34 11 4 C11 10.6 11 17.2 11 24 C10.67 24 10.34 24 10 24 C10 16.74 10 9.48 10 2 C6.7 2 3.4 2 0 2 C0 1.34 0 0.68 0 0 Z " fill="#7A45C2" transform="translate(177,137)"/>
<path d="M0 0 C0.33 0 0.66 0 1 0 C1.2475 0.969375 1.495 1.93875 1.75 2.9375 C2.1625 3.948125 2.575 4.95875 3 6 C5.03243548 6.96877057 5.03243548 6.96877057 7 7 C7 6.34 7 5.68 7 5 C6.01 4.67 5.02 4.34 4 4 C4.33 3.34 4.66 2.68 5 2 C6.64951226 2.95198711 8.29451508 3.91179145 9.9375 4.875 C10.85402344 5.40867188 11.77054687 5.94234375 12.71484375 6.4921875 C15 8 15 8 16 10 C14.35 9.67 12.7 9.34 11 9 C11 9.99 11 10.98 11 12 C6.26068925 10.9063129 2.85083632 10.1052043 0 6 C-0.25 2.75 -0.25 2.75 0 0 Z " fill="#7546BE" transform="translate(290,142)"/>
<path d="M0 0 C0.33 0.66 0.66 1.32 1 2 C0.06553465 4.03144641 -0.93224776 6.03533587 -2 8 C-2.66 8 -3.32 8 -4 8 C-4.33 8.99 -4.66 9.98 -5 11 C-5.99 11.33 -6.98 11.66 -8 12 C-8 12.99 -8 13.98 -8 15 C-6.68 15.33 -5.36 15.66 -4 16 C-7.3 16 -10.6 16 -14 16 C-11.55986121 11.11972242 -8.56607729 8.23829367 -4.3125 4.875 C-1.80846331 3.03438927 -1.80846331 3.03438927 0 0 Z " fill="#521D9E" transform="translate(34,108)"/>
<path d="M0 0 C2.97 0.495 2.97 0.495 6 1 C5.67 2.65 5.34 4.3 5 6 C-1.93 6 -8.86 6 -16 6 C-16.33 5.01 -16.66 4.02 -17 3 C-16.67 2.34 -16.34 1.68 -16 1 C-15.01 1 -14.02 1 -13 1 C-13 1.66 -13 2.32 -13 3 C-7.39 3 -1.78 3 4 3 C2.68 2.67 1.36 2.34 0 2 C0 1.34 0 0.68 0 0 Z " fill="#E3E3E3" transform="translate(234,111)"/>
<path d="M0 0 C0.33 0 0.66 0 1 0 C1.1875 3.3125 1.1875 3.3125 1 7 C-0.38842773 8.5 -0.38842773 8.5 -2 10 C-3.07648131 11.76105959 -3.07648131 11.76105959 -3.97265625 13.6875 C-4.31490234 14.38617188 -4.65714844 15.08484375 -5.00976562 15.8046875 C-5.35716797 16.52914062 -5.70457031 17.25359375 -6.0625 18 C-6.75992973 19.43836883 -7.45908588 20.87590213 -8.16015625 22.3125 C-8.46574463 22.94800781 -8.77133301 23.58351563 -9.08618164 24.23828125 C-10 26 -10 26 -12 29 C-11.50289236 23.2230067 -9.82913162 19.03076583 -7.125 13.9375 C-6.77308594 13.25623047 -6.42117187 12.57496094 -6.05859375 11.87304688 C-5.37007516 10.5408018 -4.67782328 9.21047801 -3.98144531 7.88232422 C-2.62029727 5.27176417 -1.30837206 2.637316 0 0 Z " fill="#BFA8D2" transform="translate(81,23)"/>
<path d="M0 0 C0 0.66 0 1.32 0 2 C-1.36125 2.61875 -1.36125 2.61875 -2.75 3.25 C-5.79665618 4.89050718 -7.71126806 6.44718361 -10 9 C-12.21736634 7.89131683 -14.03617993 6.50559539 -16 5 C-10.6319414 2.1361474 -6.1962852 0 0 0 Z " fill="#B56EF6" transform="translate(65,74)"/>
<path d="M0 0 C0.61875 0.4125 1.2375 0.825 1.875 1.25 C2.6175 1.62125 3.36 1.9925 4.125 2.375 C4.7025 2.66375 5.28 2.9525 5.875 3.25 C0.58269231 6.32692308 0.58269231 6.32692308 -3 5.9375 C-3.70125 5.710625 -4.4025 5.48375 -5.125 5.25 C-5.125 4.59 -5.125 3.93 -5.125 3.25 C-6.115 3.25 -7.105 3.25 -8.125 3.25 C-8.125 2.59 -8.125 1.93 -8.125 1.25 C-2.72149123 -0.96052632 -2.72149123 -0.96052632 0 0 Z " fill="#E5C2F9" transform="translate(89.125,60.75)"/>
<path d="M0 0 C0.66 0 1.32 0 2 0 C2 6.93 2 13.86 2 21 C1.34 21 0.68 21 0 21 C-0.07347656 19.28490234 -0.07347656 19.28490234 -0.1484375 17.53515625 C-0.22345189 16.04424527 -0.29900028 14.55336108 -0.375 13.0625 C-0.4059375 12.30775391 -0.436875 11.55300781 -0.46875 10.77539062 C-0.5726315 8.84492605 -0.77895614 6.92057919 -1 5 C-1.66 4.67 -2.32 4.34 -3 4 C-2.34 4 -1.68 4 -1 4 C-0.67 2.68 -0.34 1.36 0 0 Z " fill="#863DE3" transform="translate(231,143)"/>
<path d="M0 0 C0.25 2.3125 0.25 2.3125 0 5 C-1.8125 6.875 -1.8125 6.875 -4 8 C-4.99 7.67 -5.98 7.34 -7 7 C-7.33 6.01 -7.66 5.02 -8 4 C-8.99 3.34 -9.98 2.68 -11 2 C-7.36576791 -0.32590854 -4.22911669 -0.16265833 0 0 Z " fill="#6B26C9" transform="translate(34,95)"/>
<path d="M0 0 C1.32 0.66 2.64 1.32 4 2 C3.34 3.65 2.68 5.3 2 7 C1.401875 6.690625 0.80375 6.38125 0.1875 6.0625 C-4.03122853 4.01340328 -7.33414357 3.6782168 -12 4 C-14.87146994 5.36997157 -14.87146994 5.36997157 -17 7 C-15.63016497 3.83884224 -15.0109362 3.0072908 -12 1 C-6.5733968 0.56237071 -3.49185344 0.63110992 1 4 C0.67 2.68 0.34 1.36 0 0 Z " fill="#7138BA" transform="translate(122,138)"/>
<path d="M0 0 C0 3 0 3 -2.30078125 5.375 C-3.29464844 6.24125 -4.28851563 7.1075 -5.3125 8 C-9.76876222 11.88072454 -9.76876222 11.88072454 -14 16 C-14 15.34 -14 14.68 -14 14 C-14.99 13.67 -15.98 13.34 -17 13 C-14.18406772 10.5769885 -11.56863866 8.33847539 -8.375 6.4375 C-5.83869108 4.90236565 -4.05235752 3.12312847 -2 1 C-1.34 0.67 -0.68 0.34 0 0 Z " fill="#461488" transform="translate(59,82)"/>
<path d="M0 0 C1.24142712 4.96570849 0.37261666 7.15547062 -1 12 C0.19625 11.525625 1.3925 11.05125 2.625 10.5625 C6.06414238 9.26517227 9.33895604 8.45763049 13 8 C11.49200696 11.01598607 9.32266466 11.13739043 6.1875 12.1875 C5.12917969 12.55230469 4.07085937 12.91710937 2.98046875 13.29296875 C0 14 0 14 -4 13 C-2.68 8.71 -1.36 4.42 0 0 Z " fill="#BEA1D0" transform="translate(67,55)"/>
<path d="M0 0 C0.33 1.32 0.66 2.64 1 4 C1.66 4 2.32 4 3 4 C3 4.66 3 5.32 3 6 C6.3 6 9.6 6 13 6 C9.00889681 7.9955516 7.30013434 8.19546065 3 8 C3 8.66 3 9.32 3 10 C-0.73487777 9.5020163 -2.81237635 9.12508244 -6 7 C-4.35 6.67 -2.7 6.34 -1 6 C-0.67 4.02 -0.34 2.04 0 0 Z " fill="#E5D0E9" transform="translate(125,50)"/>
<path d="M0 0 C0.33 0 0.66 0 1 0 C1.22262303 6.7281627 0.95021536 12.53991163 -1 19 C-2.98 19 -4.96 19 -7 19 C-7.33 17.02 -7.66 15.04 -8 13 C-6.02 13.66 -4.04 14.32 -2 15 C-1.34 10.05 -0.68 5.1 0 0 Z " fill="#726277" transform="translate(125,35)"/>
<path d="M0 0 C0.99 0 1.98 0 3 0 C2.42366244 3.93596379 1.23467345 6.64131589 -0.875 10 C-1.64457031 11.2375 -1.64457031 11.2375 -2.4296875 12.5 C-2.94789062 13.325 -3.46609375 14.15 -4 15 C-5.00339788 16.66462322 -6.0043871 18.33070891 -7 20 C-8 18 -8 18 -7.0625 14.875 C-6.711875 13.92625 -6.36125 12.9775 -6 12 C-5.34 12 -4.68 12 -4 12 C-3.8453125 10.700625 -3.8453125 10.700625 -3.6875 9.375 C-2.96601586 5.83316877 -1.72876739 3.15687958 0 0 Z " fill="#EDC3FC" transform="translate(63,46)"/>
<path d="M0 0 C4.29 0 8.58 0 13 0 C13 1.65 13 3.3 13 5 C11.18884044 6.81115956 8.38721773 6.38199448 5.9375 6.5625 C4.83277344 6.64628906 3.72804688 6.73007813 2.58984375 6.81640625 C1.73519531 6.87699219 0.88054687 6.93757812 0 7 C0.33 6.01 0.66 5.02 1 4 C5.455 3.505 5.455 3.505 10 3 C10 2.67 10 2.34 10 2 C6.7 2 3.4 2 0 2 C0 1.34 0 0.68 0 0 Z " fill="#724EC0" transform="translate(294,136)"/>
<path d="M0 0 C0.66 0.33 1.32 0.66 2 1 C0.35588065 2.81718454 -1.12175539 4.07102398 -3.25 5.3125 C-6.2944032 7.18065651 -8.74306894 9.36742384 -11.3515625 11.79296875 C-13 13 -13 13 -16 13 C-14.50958227 9.20620942 -12.30937488 7.31656242 -9 5 C-8.34 5 -7.68 5 -7 5 C-6.67 4.01 -6.34 3.02 -6 2 C-4.7934375 1.7834375 -4.7934375 1.7834375 -3.5625 1.5625 C-1.07896294 1.25864751 -1.07896294 1.25864751 0 0 Z " fill="#9F60E5" transform="translate(52,86)"/>
<path d="M0 0 C1.47277334 2.94554669 1 5.72766559 1 9 C1.29185063 11.0064731 1.61169599 13.00994193 2 15 C-0.375 14.75 -0.375 14.75 -3 14 C-4.94746449 11.05248618 -5.22748966 8.73464831 -5.125 5.25 C-5.10695313 4.45078125 -5.08890625 3.6515625 -5.0703125 2.828125 C-5.04710938 2.22484375 -5.02390625 1.6215625 -5 1 C-4.67 1 -4.34 1 -4 1 C-3.34 3.97 -2.68 6.94 -2 10 C-1.855625 8.535625 -1.71125 7.07125 -1.5625 5.5625 C-1.125 1.125 -1.125 1.125 0 0 Z " fill="#7940BE" transform="translate(104,145)"/>
<path d="M0 0 C0.495 0.33 0.99 0.66 1.5 1 C-1.56609184 2.53304592 -4.61913327 1.91335742 -7.9921875 1.7421875 C-11.05425036 2.05697901 -12.21585783 2.98597423 -14.5 5 C-15.34304687 5.68642578 -15.34304687 5.68642578 -16.203125 6.38671875 C-16.71359375 6.81597656 -17.2240625 7.24523437 -17.75 7.6875 C-18.6575 8.450625 -19.565 9.21375 -20.5 10 C-20.02591957 5.73327616 -17.61692878 3.7544952 -14.5 1 C-10.3180084 -2.02833874 -4.66028191 -1.86411276 0 0 Z " fill="#6B429E" transform="translate(120.5,136)"/>
<path d="M0 0 C-1.07869393 0.96355244 -2.16318743 1.92061417 -3.25 2.875 C-3.85328125 3.40867187 -4.4565625 3.94234375 -5.078125 4.4921875 C-9.09849164 7.64637758 -11.88838769 8.23234601 -17 8 C-13.25 5 -13.25 5 -11 5 C-10.67 4.34 -10.34 3.68 -10 3 C-9.01 3 -8.02 3 -7 3 C-6.67 2.01 -6.34 1.02 -6 0 C-3.50907189 -1.24546405 -2.58919267 -0.7767578 0 0 Z " fill="#6632A6" transform="translate(43,115)"/>
<path d="M0 0 C1 3 1 3 0.1875 4.8125 C-0.204375 5.534375 -0.59625 6.25625 -1 7 C-1.37125 8.5159375 -1.37125 8.5159375 -1.75 10.0625 C-3 13 -3 13 -6 14.875 C-9 16 -9 16 -11 16 C-11.33 15.01 -11.66 14.02 -12 13 C-11.360625 12.87625 -10.72125 12.7525 -10.0625 12.625 C-9.381875 12.41875 -8.70125 12.2125 -8 12 C-7.67 11.34 -7.34 10.68 -7 10 C-6.34 10 -5.68 10 -5 10 C-4.9175 9.46375 -4.835 8.9275 -4.75 8.375 C-3.73623902 5.1647569 -1.92839451 2.73707608 0 0 Z " fill="#5D1FB3" transform="translate(37,106)"/>
<path d="M0 0 C0.66 0.33 1.32 0.66 2 1 C1.67 1.66 1.34 2.32 1 3 C1.66 3.33 2.32 3.66 3 4 C1.56542672 4.9834496 0.12722594 5.96160921 -1.3125 6.9375 C-2.51326172 7.75541016 -2.51326172 7.75541016 -3.73828125 8.58984375 C-6 10 -6 10 -9 11 C-9 8.875 -9 8.875 -8 6 C-5.50224217 3.74515308 -2.80198037 1.85734917 0 0 Z " fill="#9F66D9" transform="translate(36,82)"/>
<path d="M0 0 C4.6781958 3.78711089 6.04810099 9.21893137 6.6875 14.9375 C6.80272007 16.290771 6.9108799 17.64475992 7 19 C6.34 18.67 5.68 18.34 5 18 C5 17.01 5 16.02 5 15 C4.01 15 3.02 15 2 15 C2.04125 13.948125 2.0825 12.89625 2.125 11.8125 C2.00703442 8.21454972 1.69770937 6.12735936 0 3 C-0.99 2.34 -1.98 1.68 -3 1 C-2.01 0.67 -1.02 0.34 0 0 Z " fill="#AC6FE1" transform="translate(110,62)"/>
<path d="M0 0 C0.33 0 0.66 0 1 0 C0.896875 1.19625 0.79375 2.3925 0.6875 3.625 C0.65644487 7.11559679 1.2385682 8.83724368 3.5 11.5 C4.325 12.325 5.15 13.15 6 14 C5 15 5 15 1.9375 15.0625 C0.968125 15.041875 -0.00125 15.02125 -1 15 C-2.4002792 9.53891111 -1.42705634 5.30723432 0 0 Z " fill="#3C0E80" transform="translate(15,103)"/>
<path d="M0 0 C0.78375 0.04125 1.5675 0.0825 2.375 0.125 C2.705 0.785 3.035 1.445 3.375 2.125 C2.385 2.455 1.395 2.785 0.375 3.125 C0.045 3.785 -0.285 4.445 -0.625 5.125 C-5.575 5.125 -10.525 5.125 -15.625 5.125 C-15.625 4.465 -15.625 3.805 -15.625 3.125 C-14.85414063 3.07601562 -14.08328125 3.02703125 -13.2890625 2.9765625 C-12.28617187 2.90179688 -11.28328125 2.82703125 -10.25 2.75 C-9.25226563 2.68039063 -8.25453125 2.61078125 -7.2265625 2.5390625 C-3.88876877 2.00782206 -3.4002039 0.16191447 0 0 Z " fill="#7E3DD6" transform="translate(305.625,158.875)"/>
<path d="M0 0 C0.33 0.99 0.66 1.98 1 3 C2.32 2.34 3.64 1.68 5 1 C5.66 1.66 6.32 2.32 7 3 C6.01 4.485 6.01 4.485 5 6 C2.66842508 6.34541851 0.33491639 6.67794257 -2 7 C-4.38028291 8.42675173 -4.38028291 8.42675173 -6 10 C-4.79157144 5.56909529 -3.48331435 3.01887244 0 0 Z " fill="#7731D7" transform="translate(26,90)"/>
<path d="M0 0 C2 3 2 3 3 5 C9.435 4.505 9.435 4.505 16 4 C16 4.99 16 5.98 16 7 C11.28999948 8.17750013 5.34303031 9.39117425 1 6.8125 C-0.30894168 4.44004321 -0.21620175 2.6664882 0 0 Z " fill="#9A7CAE" transform="translate(107,49)"/>
<path d="M0 0 C1 2 1 2 0.375 4 C-1.51355563 6.74699 -2.76186347 7.17324174 -6 8 C-9.03092239 8.29889719 -11.99482957 8.54907829 -15 8 C-15.66 7.01 -16.32 6.02 -17 5 C-16.27554688 5.05800781 -15.55109375 5.11601562 -14.8046875 5.17578125 C-8.05096256 5.60308871 -8.05096256 5.60308871 -2.3125 2.5 C-1.549375 1.675 -0.78625 0.85 0 0 Z " fill="#843EDC" transform="translate(124,156)"/>
<path d="M0 0 C1.65 0.33 3.3 0.66 5 1 C-0.75213254 5.47388087 -4.75218707 7.38577857 -12 8 C-8.0949151 4.44992282 -5.02265357 3.18180084 0 2 C0 1.34 0 0.68 0 0 Z " fill="#E5B8FD" transform="translate(58,71)"/>
<path d="M0 0 C0.68707555 2.49064888 1 4.37886292 1 7 C2.98 7.66 4.96 8.32 7 9 C7 9.99 7 10.98 7 12 C6.34 12 5.68 12 5 12 C5 11.34 5 10.68 5 10 C4.278125 9.95875 3.55625 9.9175 2.8125 9.875 C-1.23274817 8.61647835 -2.49481257 6.36410883 -5 3 C-4.360625 2.87625 -3.72125 2.7525 -3.0625 2.625 C-2.0415625 2.315625 -2.0415625 2.315625 -1 2 C-0.67 1.34 -0.34 0.68 0 0 Z " fill="#813ECE" transform="translate(111,105)"/>
<path d="M0 0 C4.92898838 6.23287775 7.9829697 13.69561085 11 21 C8.5625 20.25 8.5625 20.25 6 19 C5.375 17.3125 5.375 17.3125 5 15 C3.71303051 11.86650907 2.42933859 8.79088687 0.8125 5.8125 C0 4 0 4 0 0 Z " fill="#6E33B3" transform="translate(122,91)"/>
<path d="M0 0 C0.66 0.33 1.32 0.66 2 1 C1.70230713 1.55461914 1.40461426 2.10923828 1.09790039 2.68066406 C-0.25179644 5.20136324 -1.59470468 7.72561808 -2.9375 10.25 C-3.40607422 11.12269531 -3.87464844 11.99539062 -4.35742188 12.89453125 C-4.80537109 13.73886719 -5.25332031 14.58320312 -5.71484375 15.453125 C-6.12855225 16.22817383 -6.54226074 17.00322266 -6.96850586 17.80175781 C-7.9392844 19.8706075 -8.53558429 21.7690269 -9 24 C-9.66 24 -10.32 24 -11 24 C-8.56705598 15.33263693 -4.34217123 7.82828494 0 0 Z " fill="#E2D1E6" transform="translate(68,34)"/>
<path d="M0 0 C0.66 0.33 1.32 0.66 2 1 C-3.46169428 6.756921 -3.46169428 6.756921 -8.12109375 7.203125 C-9.26771484 7.22632813 -9.26771484 7.22632813 -10.4375 7.25 C-11.19933594 7.27578125 -11.96117188 7.3015625 -12.74609375 7.328125 C-15.531453 6.92263076 -16.8981141 5.81940009 -19 4 C-18.20335938 4.03480469 -17.40671875 4.06960937 -16.5859375 4.10546875 C-8.37626491 4.35607263 -8.37626491 4.35607263 -1 1 C-0.67 0.67 -0.34 0.34 0 0 Z " fill="#6130A3" transform="translate(125,159)"/>
<path d="M0 0 C0.33 0.66 0.66 1.32 1 2 C0.67 2.66 0.34 3.32 0 4 C3.96 4 7.92 4 12 4 C12 4.33 12 4.66 12 5 C9.20826945 5.02690104 6.41679652 5.04679053 3.625 5.0625 C2.43390625 5.07506836 2.43390625 5.07506836 1.21875 5.08789062 C-4.7734375 5.11328125 -4.7734375 5.11328125 -7 4 C-6.67 3.01 -6.34 2.02 -6 1 C-4.02 0.67 -2.04 0.34 0 0 Z " fill="#331652" transform="translate(10,122)"/>
<path d="M0 0 C1.485 0.99 1.485 0.99 3 2 C4.65549531 2.38499891 6.3222433 2.72793135 8 3 C8.33 4.32 8.66 5.64 9 7 C2.25 7.125 2.25 7.125 0 6 C0 4.02 0 2.04 0 0 Z " fill="#7F40D6" transform="translate(261,157)"/>
<path d="M0 0 C3.73869347 2.4120603 3.73869347 2.4120603 4.75 4.6875 C5.12295528 8.13733632 5.05782464 11.53052164 5 15 C4.34 15 3.68 15 3 15 C2.87882812 14.40832031 2.75765625 13.81664062 2.6328125 13.20703125 C1.73255357 8.96196415 0.79543379 4.97560339 -1 1 C-0.67 0.67 -0.34 0.34 0 0 Z " fill="#873EDF" transform="translate(44,140)"/>
<path d="M0 0 C0 0.99 0 1.98 0 3 C-0.99 3 -1.98 3 -3 3 C-3.33 3.66 -3.66 4.32 -4 5 C-4.66 4.34 -5.32 3.68 -6 3 C-8.23344065 3.19890456 -8.23344065 3.19890456 -10.625 3.875 C-11.44226563 4.07867187 -12.25953125 4.28234375 -13.1015625 4.4921875 C-13.72804688 4.65976563 -14.35453125 4.82734375 -15 5 C-15.33 4.34 -15.66 3.68 -16 3 C-14.27318563 2.49193553 -12.54342021 1.99389533 -10.8125 1.5 C-9.84957031 1.2215625 -8.88664062 0.943125 -7.89453125 0.65625 C-5.14654124 0.03322392 -2.80401584 -0.12302812 0 0 Z " fill="#875DAD" transform="translate(116,60)"/>
<path d="M0 0 C7.31110994 -0.3689719 13.21256822 0.18447274 20 3 C16.77705298 3.8989625 15.22314591 3.80578648 12 3 C10.68 3 9.36 3 8 3 C4.9672996 3 2.81853156 2.93951052 0 2 C0 1.34 0 0.68 0 0 Z " fill="#E8E8E8" transform="translate(234,57)"/>
<path d="M0 0 C0.33 0 0.66 0 1 0 C1 7.59 1 15.18 1 23 C0.01 23 -0.98 23 -2 23 C-2 19.7 -2 16.4 -2 13 C-1.67 13 -1.34 13 -1 13 C-0.67 8.71 -0.34 4.42 0 0 Z " fill="#8140DA" transform="translate(186,141)"/>
<path d="M0 0 C1.3271261 3.9813783 1.06915913 7.85045227 1 12 C2.32 12.33 3.64 12.66 5 13 C0.25 14.125 0.25 14.125 -2 13 C-2.16682272 8.07872966 -2.24828052 4.49656104 0 0 Z " fill="#2C0A65" transform="translate(13,106)"/>
<path d="M0 0 C0 0.66 0 1.32 0 2 C-2.97 2.66 -5.94 3.32 -9 4 C-9 4.66 -9 5.32 -9 6 C-9.99 6 -10.98 6 -12 6 C-12 5.34 -12 4.68 -12 4 C-12.66 3.67 -13.32 3.34 -14 3 C-9.4871514 0.3964335 -5.15155902 0 0 0 Z " fill="#673C97" transform="translate(101,64)"/>
<path d="M0 0 C1.32 0.33 2.64 0.66 4 1 C4.92844389 5.33273814 4.92844389 8.66726186 4 13 C3.01 12.34 2.02 11.68 1 11 C1.66 11 2.32 11 3 11 C2.505 10.113125 2.01 9.22625 1.5 8.3125 C0.05621326 5.12413762 -0.30159922 3.41812454 0 0 Z " fill="#B66DF9" transform="translate(99,85)"/>
<path d="M0 0 C0.33 0.99 0.66 1.98 1 3 C0.34 3.66 -0.32 4.32 -1 5 C-1.34490322 9.05261287 -1.30163882 10.54754176 1 14 C1 14.99 1 15.98 1 17 C0.34 17 -0.32 17 -1 17 C-1.70133599 15.42274653 -2.385583 13.83788667 -3.0625 12.25 C-3.44535156 11.36828125 -3.82820313 10.4865625 -4.22265625 9.578125 C-5.05091949 6.8311213 -5.20785611 5.59076383 -4 3 C-3.01 2.67 -2.02 2.34 -1 2 C-0.67 1.34 -0.34 0.68 0 0 Z " fill="#CA90F7" transform="translate(101,79)"/>
<path d="M0 0 C0 0.66 0 1.32 0 2 C-3.3 2.66 -6.6 3.32 -10 4 C-10 4.66 -10 5.32 -10 6 C-10.99 6.33 -11.98 6.66 -13 7 C-13 6.01 -13 5.02 -13 4 C-13.99 4 -14.98 4 -16 4 C-16 3.34 -16 2.68 -16 2 C-13.69 2.33 -11.38 2.66 -9 3 C-9 2.34 -9 1.68 -9 1 C-5.94152152 0.45627049 -3.11227195 0 0 0 Z " fill="#A38FAB" transform="translate(137,57)"/>
<path d="M0 0 C0.33 0 0.66 0 1 0 C1 4.95 1 9.9 1 15 C0.01 15.33 -0.98 15.66 -2 16 C-2.33 14.02 -2.66 12.04 -3 10 C-2.01 9.67 -1.02 9.34 0 9 C-0.185625 7.88625 -0.37125 6.7725 -0.5625 5.625 C-1 2 -1 2 0 0 Z " fill="#E5C9F1" transform="translate(99,11)"/>
<path d="M0 0 C1.32 0.33 2.64 0.66 4 1 C4 2.98 4 4.96 4 7 C2.35 7.33 0.7 7.66 -1 8 C-1.33 7.34 -1.66 6.68 -2 6 C-1.34 6 -0.68 6 0 6 C0 4.02 0 2.04 0 0 Z " fill="#6B3BBB" transform="translate(74,158)"/>
<path d="M0 0 C3.63 0 7.26 0 11 0 C11 3.96 11 7.92 11 12 C12.32 12.33 13.64 12.66 15 13 C13.35 13.33 11.7 13.66 10 14 C8.63578969 11.27157939 9.12192789 9.39046682 9.4375 6.375 C9.53933594 5.37210938 9.64117187 4.36921875 9.74609375 3.3359375 C9.82988281 2.56507813 9.91367188 1.79421875 10 1 C6.7 1 3.4 1 0 1 C0 0.67 0 0.34 0 0 Z " fill="#6C43B2" transform="translate(220,152)"/>
<path d="M0 0 C2.97 0 5.94 0 9 0 C9 0.66 9 1.32 9 2 C12.465 1.505 12.465 1.505 16 1 C15.67 1.99 15.34 2.98 15 4 C12.36 4 9.72 4 7 4 C7 3.34 7 2.68 7 2 C5.02 2 3.04 2 1 2 C0.67 1.34 0.34 0.68 0 0 Z " fill="#7B37C3" transform="translate(125,121)"/>
<path d="M0 0 C0.66 0.99 1.32 1.98 2 3 C1.319375 3.61875 1.319375 3.61875 0.625 4.25 C-1.05950374 6.06408095 -1.99265971 7.75285627 -3 10 C-3.66 9.34 -4.32 8.68 -5 8 C-4.74739753 4.21096292 -2.72150557 2.45813407 0 0 Z " fill="#D096FB" transform="translate(101,71)"/>
<path d="M0 0 C2.31 0.33 4.62 0.66 7 1 C7 4 7 4 6 6 C3.5625 5.25 3.5625 5.25 1 4 C0.1875 1.875 0.1875 1.875 0 0 Z " fill="#9744F4" transform="translate(39,85)"/>
<path d="M0 0 C-0.33 0.66 -0.66 1.32 -1 2 C-2.98 2 -4.96 2 -7 2 C-7.33 2.66 -7.66 3.32 -8 4 C-10.97 3.505 -10.97 3.505 -14 3 C-11.87033995 0.87033995 -10.95931796 0.52375338 -8.125 -0.1875 C-7.44695312 -0.36667969 -6.76890625 -0.54585937 -6.0703125 -0.73046875 C-3.77181444 -1.02970718 -2.19449036 -0.69377386 0 0 Z " fill="#F3D2FC" transform="translate(103,60)"/>
<path d="M0 0 C2.18994248 3.28491373 2.35277339 4.83095639 2.625 8.6875 C2.69976562 9.68136719 2.77453125 10.67523438 2.8515625 11.69921875 C2.90054688 12.45847656 2.94953125 13.21773437 3 14 C2.34 13.67 1.68 13.34 1 13 C1 11.68 1 10.36 1 9 C-0.32 8.67 -1.64 8.34 -3 8 C-2.01 5.36 -1.02 2.72 0 0 Z " fill="#CF9AF1" transform="translate(101,30)"/>
<path d="M0 0 C0.66 0.33 1.32 0.66 2 1 C-1.96 5.62 -5.92 10.24 -10 15 C-10 11.04852353 -8.61580052 9.94684795 -6.125 6.9375 C-5.40570313 6.05964844 -4.68640625 5.18179687 -3.9453125 4.27734375 C-2 2 -2 2 0 0 Z " fill="#DDD2DF" transform="translate(84,13)"/>
<path d="M0 0 C-2.55081829 2.97595467 -5.43434437 4.44002566 -9 6 C-9.99 6 -10.98 6 -12 6 C-11 3 -11 3 -8.25 1.3125 C-5.14979295 0.06049331 -3.28328088 -0.28970125 0 0 Z " fill="#CC93F8" transform="translate(49,79)"/>
<path d="M0 0 C1 2 1 2 0.0625 5.125 C-0.288125 6.07375 -0.63875 7.0225 -1 8 C-3.31 8.33 -5.62 8.66 -8 9 C-7.04270084 7.87411986 -6.08412105 6.7493285 -5.125 5.625 C-4.59132812 4.99851562 -4.05765625 4.37203125 -3.5078125 3.7265625 C-2.38567993 2.44163349 -1.20628025 1.20628025 0 0 Z " fill="#712EC4" transform="translate(55,87)"/>
<path d="M0 0 C2 1 2 1 4 3 C0.77208445 5.1519437 -0.28400809 5.20086443 -4 5 C-4.33 5.66 -4.66 6.32 -5 7 C-5.33 6.01 -5.66 5.02 -6 4 C-4.02 2.68 -2.04 1.36 0 0 Z " fill="#4C1D86" transform="translate(66,77)"/>
<path d="M0 0 C0.66 0 1.32 0 2 0 C0.68884949 3.93345152 -0.84212778 4.32374076 -4.4375 6.25 C-5.42621094 6.79140625 -6.41492187 7.3328125 -7.43359375 7.890625 C-8.28050781 8.25671875 -9.12742188 8.6228125 -10 9 C-10.66 8.67 -11.32 8.34 -12 8 C-10.56839732 6.99157547 -9.12948547 5.99352109 -7.6875 5 C-6.88699219 4.443125 -6.08648437 3.88625 -5.26171875 3.3125 C-3 2 -3 2 0 2 C0 1.34 0 0.68 0 0 Z " fill="#AB8BC4" transform="translate(50,73)"/>
<path d="M0 0 C3.3 0.33 6.6 0.66 10 1 C10 1.66 10 2.32 10 3 C6.37 3 2.74 3 -1 3 C-0.67 2.01 -0.34 1.02 0 0 Z " fill="#722FC0" transform="translate(139,120)"/>
<path d="M0 0 C0.99 0.33 1.98 0.66 3 1 C1.88121617 2.17262904 0.75476949 3.33795138 -0.375 4.5 C-1.00148438 5.1496875 -1.62796875 5.799375 -2.2734375 6.46875 C-4 8 -4 8 -6 8 C-4.75237172 4.15314615 -3.6129609 1.97070595 0 0 Z " fill="#7137BC" transform="translate(29,105)"/>
<path d="M0 0 C0.33 0.99 0.66 1.98 1 3 C1.99 2.67 2.98 2.34 4 2 C3.625 4.4375 3.625 4.4375 3 7 C2.01 7.495 2.01 7.495 1 8 C1 7.34 1 6.68 1 6 C0.01 6 -0.98 6 -2 6 C-1.49396008 3.83125748 -1.00016187 2.00032373 0 0 Z " fill="#6120BE" transform="translate(26,99)"/>
<path d="M0 0 C0.66 0 1.32 0 2 0 C2.6875 2.75 2.6875 2.75 3 6 C1.5625 8.375 1.5625 8.375 0 10 C-1.07193479 6.78419562 -1.14636054 4.36629251 -1 1 C-0.67 0.67 -0.34 0.34 0 0 Z " fill="#A757F9" transform="translate(113,78)"/>
<path d="M0 0 C-4.29 2.31 -8.58 4.62 -13 7 C-13 6.01 -13 5.02 -13 4 C-11.59248779 3.13083113 -10.1735479 2.28014851 -8.75 1.4375 C-7.96109375 0.96183594 -7.1721875 0.48617187 -6.359375 -0.00390625 C-4 -1 -4 -1 0 0 Z " fill="#32135A" transform="translate(86,73)"/>
<path d="M0 0 C0.33 1.32 0.66 2.64 1 4 C-1.375 5.5625 -1.375 5.5625 -4 7 C-4.66 6.67 -5.32 6.34 -6 6 C-2.25 1.125 -2.25 1.125 0 0 Z " fill="#B875F4" transform="translate(64,55)"/>
<path d="M0 0 C0.556875 0.268125 1.11375 0.53625 1.6875 0.8125 C1.15125 1.204375 0.615 1.59625 0.0625 2 C-2.80458532 4.1880388 -5.55214568 6.49129296 -8.3125 8.8125 C-7.82204356 4.398392 -4.79279276 -0.38860482 0 0 Z " fill="#6E39BE" transform="translate(108.3125,137.1875)"/>
<path d="M0 0 C-3.32307692 3.93846154 -3.32307692 3.93846154 -6.75 4.25 C-7.4925 4.1675 -8.235 4.085 -9 4 C-8.34 3.67 -7.68 3.34 -7 3 C-6.67 2.01 -6.34 1.02 -6 0 C-3.50907189 -1.24546405 -2.58919267 -0.7767578 0 0 Z " fill="#723CB0" transform="translate(43,115)"/>
<path d="M0 0 C1.134375 0.020625 2.26875 0.04125 3.4375 0.0625 C0.77434806 2.72565194 -1.21594068 3.00676493 -4.921875 3.16015625 C-5.71078125 3.14855469 -6.4996875 3.13695313 -7.3125 3.125 C-8.11171875 3.11597656 -8.9109375 3.10695313 -9.734375 3.09765625 C-10.33765625 3.08605469 -10.9409375 3.07445313 -11.5625 3.0625 C-11.5625 2.7325 -11.5625 2.4025 -11.5625 2.0625 C-10.428125 1.918125 -9.29375 1.77375 -8.125 1.625 C-4.13770521 0.99542714 -4.0324238 0.07074428 0 0 Z " fill="#673398" transform="translate(144.5625,122.9375)"/>
<path d="M0 0 C0.66 0.33 1.32 0.66 2 1 C0.3125 3.5 0.3125 3.5 -2 6 C-4.75 6.3125 -4.75 6.3125 -7 6 C-7.33 5.34 -7.66 4.68 -8 4 C-6.02 3.67 -4.04 3.34 -2 3 C-2 2.34 -2 1.68 -2 1 C-1.34 0.67 -0.68 0.34 0 0 Z " fill="#41148A" transform="translate(22,118)"/>
<path d="M0 0 C0.99 0.33 1.98 0.66 3 1 C-1.39453125 5.00390625 -1.39453125 5.00390625 -3 6 C-3.99 5.67 -4.98 5.34 -6 5 C-1.60546875 0.99609375 -1.60546875 0.99609375 0 0 Z " fill="#8747D3" transform="translate(35,99)"/>
<path d="M0 0 C-0.33 1.32 -0.66 2.64 -1 4 C-2.32 4 -3.64 4 -5 4 C-5.33 4.99 -5.66 5.98 -6 7 C-6 6.01 -6 5.02 -6 4 C-6.66 3.67 -7.32 3.34 -8 3 C-2.25 0 -2.25 0 0 0 Z " fill="#572B8E" transform="translate(77,72)"/>
<path d="M0 0 C1.32 0.66 2.64 1.32 4 2 C2.5437455 2.67119549 1.08492133 3.33681807 -0.375 4 C-1.59316406 4.556875 -1.59316406 4.556875 -2.8359375 5.125 C-5 6 -5 6 -7 6 C-6.67 5.01 -6.34 4.02 -6 3 C-2.9375 1.8125 -2.9375 1.8125 0 1 C0 0.67 0 0.34 0 0 Z " fill="#CAA1E8" transform="translate(83,66)"/>
<path d="M0 0 C1.98 0.495 1.98 0.495 4 1 C3.67 1.66 3.34 2.32 3 3 C4.32 3.99 5.64 4.98 7 6 C4.6568787 5.74438677 2.32156597 5.40729228 0 5 C-0.33 4.34 -0.66 3.68 -1 3 C-0.67 2.01 -0.34 1.02 0 0 Z " fill="#EEEEEE" transform="translate(187,57)"/>
<path d="M0 0 C1.34484451 2.68968903 0.62094799 4.1022427 0 7 C0 8.32 0 9.64 0 11 C-0.66 11.66 -1.32 12.32 -2 13 C-3.35384615 5.73846154 -3.35384615 5.73846154 -1.5625 2 C-1.046875 1.34 -0.53125 0.68 0 0 Z " fill="#D5ACF0" transform="translate(68,44)"/>
<path d="M0 0 C1.32 0.66 2.64 1.32 4 2 C3.34 3.65 2.68 5.3 2 7 C-0.46800047 5.84826645 -2.04783565 4.95216435 -4 3 C-1.525 3.495 -1.525 3.495 1 4 C0.67 2.68 0.34 1.36 0 0 Z " fill="#6A3BA3" transform="translate(122,138)"/>
<path d="M0 0 C0.66 0 1.32 0 2 0 C5 4.38461538 5 4.38461538 5 7 C3.68 7 2.36 7 1 7 C0.67 4.69 0.34 2.38 0 0 Z " fill="#9245E4" transform="translate(105,100)"/>
<path d="M0 0 C2.62962963 3.94444444 2.62962963 3.94444444 3 7 C2.0625 9.25 2.0625 9.25 1 11 C-0.98362069 8.08291076 -0.9876191 6.87619096 -0.625 3.25 C-0.41875 2.1775 -0.2125 1.105 0 0 Z " fill="#E8C7F7" transform="translate(85,38)"/>
<path d="M0 0 C0.66 0.33 1.32 0.66 2 1 C2.625 4.0625 2.625 4.0625 3 7 C1.35 6.67 -0.3 6.34 -2 6 C-2 5.01 -2 4.02 -2 3 C-1.01 3.33 -0.02 3.66 1 4 C0.67 2.68 0.34 1.36 0 0 Z " fill="#6C3BB8" transform="translate(105,156)"/>
<path d="M0 0 C2 1 2 1 2.6328125 2.84765625 C2.79523438 3.57855469 2.95765625 4.30945313 3.125 5.0625 C3.29257813 5.79597656 3.46015625 6.52945313 3.6328125 7.28515625 C3.75398438 7.85105469 3.87515625 8.41695312 4 9 C2.68 9.33 1.36 9.66 0 10 C0 6.7 0 3.4 0 0 Z " fill="#8739DE" transform="translate(120,90)"/>
<path d="M0 0 C0 0.66 0 1.32 0 2 C-1.65 2.66 -3.3 3.32 -5 4 C-5 3.34 -5 2.68 -5 2 C-6.65 2.66 -8.3 3.32 -10 4 C-10 3.34 -10 2.68 -10 2 C-3.375 0 -3.375 0 0 0 Z " fill="#BC78F2" transform="translate(65,74)"/>
<path d="M0 0 C-3.3 0.66 -6.6 1.32 -10 2 C-10 1.34 -10 0.68 -10 0 C-4.5 -2.25 -4.5 -2.25 0 0 Z " fill="#CBADD4" transform="translate(91,62)"/>
<path d="M0 0 C0.66 0.66 1.32 1.32 2 2 C1.01 4.97 0.02 7.94 -1 11 C-1.66 10.67 -2.32 10.34 -3 10 C-2.69201674 8.51988629 -2.378482 7.04092675 -2.0625 5.5625 C-1.88847656 4.73878906 -1.71445313 3.91507813 -1.53515625 3.06640625 C-1 1 -1 1 0 0 Z " fill="#ECC9FB" transform="translate(70,41)"/>
<path d="M0 0 C1.65 0 3.3 0 5 0 C4.34 1.98 3.68 3.96 3 6 C2.34 6 1.68 6 1 6 C0.67 4.02 0.34 2.04 0 0 Z " fill="#9338D9" transform="translate(214,142)"/>
<path d="M0 0 C2.31 0.33 4.62 0.66 7 1 C7.33 1.99 7.66 2.98 8 4 C6.35 4.33 4.7 4.66 3 5 C3.33 4.01 3.66 3.02 4 2 C2.68 2 1.36 2 0 2 C0 1.34 0 0.68 0 0 Z " fill="#4E2A73" transform="translate(145,119)"/>
<path d="M0 0 C2.31 0.66 4.62 1.32 7 2 C7.33 3.32 7.66 4.64 8 6 C7.01 6 6.02 6 5 6 C4.67 5.34 4.34 4.68 4 4 C1.98330173 2.86649466 1.98330173 2.86649466 0 2 C0 1.34 0 0.68 0 0 Z " fill="#7242BB" transform="translate(262,158)"/>
<path d="M0 0 C0.33 0.66 0.66 1.32 1 2 C-0.68474722 5.36949443 -1.8191658 6.87944386 -5 9 C-3.90931332 5.22454612 -3.0916909 2.52956528 0 0 Z " fill="#7B43BB" transform="translate(25,91)"/>
<path d="M0 0 C0.99 0.33 1.98 0.66 3 1 C0.03 3.475 0.03 3.475 -3 6 C-3.33 5.01 -3.66 4.02 -4 3 C-2.1875 1.4375 -2.1875 1.4375 0 0 Z " fill="#300E5D" transform="translate(61,86)"/>
<path d="M0 0 C0.33 0.66 0.66 1.32 1 2 C1.66 2.33 2.32 2.66 3 3 C2.01 4.485 2.01 4.485 1 6 C0.34 6 -0.32 6 -1 6 C-1.66 4.35 -2.32 2.7 -3 1 C-2.01 0.67 -1.02 0.34 0 0 Z " fill="#AA60F4" transform="translate(51,79)"/>
<path d="M0 0 C1.98 0 3.96 0 6 0 C5.01 0.495 5.01 0.495 4 1 C4 1.99 4 2.98 4 4 C2.02 4 0.04 4 -2 4 C-1.34 2.68 -0.68 1.36 0 0 Z " fill="#3C0F77" transform="translate(69,76)"/>
<path d="M0 0 C-6.75 3 -6.75 3 -9 3 C-8.67 2.01 -8.34 1.02 -8 0 C-2.25 -1.125 -2.25 -1.125 0 0 Z " fill="#682CAF" transform="translate(42,160)"/>
<path d="M0 0 C0.99 0.33 1.98 0.66 3 1 C2.67 2.32 2.34 3.64 2 5 C0.68 4.67 -0.64 4.34 -2 4 C-1.34 2.68 -0.68 1.36 0 0 Z " fill="#8A4BEC" transform="translate(305,155)"/>
<path d="M0 0 C0.33 0.99 0.66 1.98 1 3 C1.66 3.33 2.32 3.66 3 4 C2.34 4 1.68 4 1 4 C0.67 4.66 0.34 5.32 0 6 C0 5.34 0 4.68 0 4 C-1.32 4.33 -2.64 4.66 -4 5 C-4 4.34 -4 3.68 -4 3 C-2 1.375 -2 1.375 0 0 Z " fill="#7E47C8" transform="translate(219,138)"/>
<path d="M0 0 C0 3 0 3 -1 5 C-0.01 5.33 0.98 5.66 2 6 C1.67 6.99 1.34 7.98 1 9 C0.67 8.34 0.34 7.68 0 7 C-0.66 7 -1.32 7 -2 7 C-2.125 4.625 -2.125 4.625 -2 2 C-1.34 1.34 -0.68 0.68 0 0 Z " fill="#5F28A9" transform="translate(21,95)"/>
<path d="M0 0 C1.32 0 2.64 0 4 0 C3.67 2.64 3.34 5.28 3 8 C2.01 7.34 1.02 6.68 0 6 C0.66 6 1.32 6 2 6 C1.34 4.02 0.68 2.04 0 0 Z " fill="#B159F0" transform="translate(100,90)"/>
<path d="M0 0 C3.2542015 2.83430453 4.5206753 4.68607774 5 9 C4.34 9 3.68 9 3 9 C2.01 6.03 1.02 3.06 0 0 Z " fill="#B986E4" transform="translate(97,87)"/>
<path d="M0 0 C0.66 0.33 1.32 0.66 2 1 C0.02579865 3.52259061 -0.96745642 3.9929808 -4.1875 4.6875 C-5.5796875 4.8421875 -5.5796875 4.8421875 -7 5 C-6.67 4.01 -6.34 3.02 -6 2 C-4.7934375 1.7834375 -4.7934375 1.7834375 -3.5625 1.5625 C-1.07896294 1.25864751 -1.07896294 1.25864751 0 0 Z " fill="#9B63D5" transform="translate(52,86)"/>
<path d="M0 0 C0.99 0 1.98 0 3 0 C4.125 3.75 4.125 3.75 3 6 C2.34 6 1.68 6 1 6 C0.67 4.02 0.34 2.04 0 0 Z " fill="#E1B5FA" transform="translate(93,68)"/>
</svg>
